<svg width="121" height="121" viewBox="0 0 121 121" fill="none" xmlns="http://www.w3.org/2000/svg">
<path d="M120.148 32.291C119.829 33.921 119.596 35.573 119.176 37.176C117.915 42.0145 115.369 46.4222 111.809 49.9331C103.842 57.9051 95.8723 65.8744 87.9009 73.8411C75.6529 86.1291 54.4409 85.256 43.4099 68.761C43.3467 68.6689 43.2909 68.5719 43.2429 68.4709C45.0936 66.336 47.0526 64.2975 49.1119 62.363C50.3483 61.351 51.9175 60.836 53.5131 60.9185C55.1088 61.0009 56.6165 61.675 57.7419 62.8091C60.4072 65.4806 64.0184 66.9933 67.7919 67.019C71.2568 67.0794 74.6045 65.7645 77.1019 63.3621C80.1589 60.4311 83.1249 57.4051 86.1229 54.4131C90.9909 49.5531 95.882 44.713 100.71 39.813C106.95 33.48 106.263 23.776 99.262 18.613C96.7219 16.7366 93.6087 15.8008 90.455 15.9661C87.3013 16.1313 84.303 17.3874 81.973 19.519C77.127 24.119 72.4599 28.911 67.7529 33.655C67.5153 33.9694 67.1743 34.1896 66.79 34.2769C66.4058 34.3641 66.003 34.3129 65.653 34.1321C60.5975 32.1686 55.1473 31.4367 49.7529 31.9971C49.3669 32.0361 48.9789 32.0519 48.5909 32.0659C48.5309 32.0659 48.4689 32.009 48.3129 31.928C48.6379 31.579 48.9339 31.241 49.2509 30.928C56.2579 23.921 63.3079 16.956 70.2639 9.89697C74.9623 4.89423 81.2928 1.73391 88.1149 0.985107C88.3039 0.946048 88.4885 0.887994 88.666 0.812012H93.7969C94.0452 0.904173 94.3008 0.975312 94.5609 1.0249C100.187 1.77195 105.48 4.12215 109.807 7.79468C114.135 11.4672 117.314 16.3071 118.966 21.7371C119.49 23.5861 119.766 25.508 120.151 27.395L120.148 32.291Z" fill="white"/>
<path d="M72.75 88.8998C72.295 89.3998 72.05 89.681 71.788 89.945C64.588 97.145 57.388 104.341 50.188 111.534C39.535 122.126 23.704 123.143 12.051 114.018C8.77263 111.534 6.06941 108.371 4.12629 104.746C2.18317 101.121 1.04599 97.1189 0.792552 93.0136C0.539117 88.9083 1.17538 84.7968 2.65785 80.9601C4.14032 77.1235 6.43403 73.6521 9.38203 70.7839C17.182 62.9779 24.9873 55.178 32.798 47.384C35.5001 44.6019 38.7443 42.4039 42.3298 40.9257C45.9154 39.4475 49.7661 38.7207 53.6438 38.7902C57.5215 38.8598 61.3437 39.7242 64.8739 41.33C68.4042 42.9358 71.5674 45.2487 74.168 48.1259C75.305 49.3399 76.259 50.726 77.323 52.008C77.781 52.561 77.76 52.946 77.21 53.466C75.687 54.907 74.242 56.4309 72.741 57.8969C72.1252 58.5641 71.3809 59.1001 70.553 59.4728C69.725 59.8455 68.8303 60.0474 67.9226 60.0661C67.0148 60.0848 66.1126 59.9198 65.27 59.5815C64.4274 59.2431 63.6618 58.7382 63.019 58.0968C60.5612 55.6722 57.3064 54.2232 53.86 54.019C51.8359 53.9084 49.8122 54.2429 47.9314 54.9989C46.0506 55.755 44.3584 56.9142 42.974 58.3949C37.55 63.8509 32.111 69.2919 26.657 74.7179C24.431 76.9439 22.166 79.132 19.988 81.402C18.174 83.1326 16.8857 85.3402 16.2714 87.7709C15.6572 90.2016 15.7419 92.7564 16.516 95.141C17.1514 97.5272 18.4457 99.6863 20.2508 101.371C22.0559 103.056 24.2988 104.199 26.723 104.669C28.8808 105.239 31.1499 105.237 33.3068 104.663C35.4636 104.09 37.4338 102.964 39.023 101.397C43.831 96.8129 48.479 92.061 53.153 87.339C53.3961 87.0275 53.7415 86.8117 54.1281 86.7301C54.5147 86.6485 54.9177 86.7063 55.266 86.893C60.2848 88.836 65.6914 89.5672 71.046 89.027C71.512 88.976 71.977 88.9538 72.75 88.8998Z" fill="white"/>
</svg>
