<svg width="132" height="133" viewBox="0 0 132 133" fill="none" xmlns="http://www.w3.org/2000/svg">
<path d="M0.0241139 66.467C0.035984 53.5062 3.89066 40.84 11.1009 30.07C18.3111 19.3 28.5531 10.9098 40.5316 5.96036C52.51 1.01097 65.6871 -0.275276 78.3967 2.26407C91.1062 4.80343 102.777 11.0545 111.934 20.2267C121.091 29.399 127.323 41.0804 129.841 53.7941C132.359 66.5078 131.051 79.683 126.082 91.6532C121.113 103.623 112.705 113.851 101.923 121.044C91.1413 128.236 78.4689 132.07 65.5081 132.06C56.9001 132.058 48.3768 130.359 40.4257 127.06C32.4747 123.762 25.2517 118.929 19.17 112.837C13.0882 106.745 8.26696 99.5141 4.98176 91.5575C1.69655 83.601 0.0118915 75.075 0.0241139 66.467ZM120.649 66.5509C120.654 55.6569 117.429 45.0061 111.381 35.9447C105.334 26.8834 96.7352 19.8184 86.673 15.643C76.6109 11.4676 65.5367 10.3691 54.8504 12.4865C44.1641 14.6039 34.3454 19.8422 26.6357 27.539C18.9259 35.2357 13.6713 45.0455 11.5358 55.7282C9.4004 66.4109 10.4801 77.4869 14.6385 87.5561C18.7969 97.6252 25.8474 106.235 34.8985 112.298C43.9496 118.361 54.595 121.604 65.4891 121.618C80.0982 121.604 94.1065 115.801 104.445 105.48C114.784 95.1584 120.611 81.16 120.649 66.5509Z" fill="white"/>
<path d="M62.2281 18.2661V25.2971H68.8281V18.3521C91.1851 18.7801 112.877 38.881 113.779 63.21H106.766V69.759H113.752C113.186 91.391 94.3761 113.42 68.8921 114.804V107.715H62.2921V114.75C39.8641 113.938 18.5492 94.6499 17.2852 69.8679H24.3301V63.2681H17.4211C17.6561 41.8501 36.9681 19.4141 62.2281 18.2661ZM38.9681 89.4861C38.9235 90.0961 39.0467 90.7066 39.3245 91.2515C39.6022 91.7964 40.024 92.2547 40.5438 92.5769C41.0637 92.8991 41.6618 93.073 42.2734 93.0793C42.885 93.0857 43.4866 92.9244 44.0131 92.613C54.2541 87.699 64.4941 82.7841 74.6941 77.7871C75.6432 77.2753 76.4115 76.4833 76.8942 75.519C81.8312 65.439 86.6841 55.319 91.5541 45.207C92.4331 43.381 92.3072 42.043 91.1912 40.907C90.0752 39.771 88.7201 39.6199 86.9081 40.4939C76.7161 45.4049 66.5191 50.306 56.3591 55.281C55.4808 55.7363 54.765 56.4525 54.3102 57.3311C49.3212 67.5371 44.4101 77.78 39.4861 88.019C39.281 88.496 39.108 88.9861 38.9681 89.4861Z" fill="white"/>
<path d="M67.8171 73.8611L49.7941 82.541L49.5452 82.2871C52.4552 76.2441 55.3651 70.2019 58.2181 64.2759L67.8171 73.8611Z" fill="white"/>
<path d="M72.9001 68.7759L63.2941 59.2019L81.2811 50.5271L81.5812 50.7271C78.6662 56.7801 75.7561 62.8299 72.9001 68.7759Z" fill="white"/>
</svg>
