<svg width="1920" height="711" viewBox="0 0 1920 711" fill="none" xmlns="http://www.w3.org/2000/svg">
<mask id="mask0_53_553" style="mask-type:luminance" maskUnits="userSpaceOnUse" x="-32" y="-544" width="1965" height="1310">
<path d="M1933 -543.795H-31.58V765.925H1933V-543.795Z" fill="white"/>
</mask>
<g mask="url(#mask0_53_553)">
<path d="M1933 -543.795H-31.58V765.925H1933V-543.795Z" fill="url(#paint0_linear_53_553)"/>
<path style="mix-blend-mode:overlay" opacity="0.25" d="M-123.928 -21.134C-120.959 -25.1151 114.886 -99.718 262.164 81.394C409.442 262.506 341.972 323.983 721.849 313.226C1149.31 301.126 1057.26 864.526 1057.26 864.526H1998.65V183.86C1998.65 183.86 1739.92 237.597 1571.96 28.6211C1436.54 -139.868 1183.06 87.5209 1002.39 -106.715C801.7 -322.474 914.5 -605.684 914.5 -605.684H-141.976L-123.928 -21.134Z" fill="url(#paint1_linear_53_553)"/>
<g style="mix-blend-mode:overlay" opacity="0.2">
<path d="M60.1521 -392.762C60.1521 -392.762 229.619 -408.435 374.403 -168.888C519.187 70.6591 899.263 -51.9331 824.464 -382.601C749.665 -713.269 460.98 -916.401 189.094 -798.671C-82.7919 -680.941 -128.157 -467.257 60.1521 -392.762Z" fill="url(#paint2_linear_53_553)"/>
<path d="M233.979 -241.443C124.072 -319.765 -103.121 -193.965 124.779 -75.2691C352.679 43.4269 407.207 -118 233.979 -241.443Z" fill="url(#paint3_linear_53_553)"/>
<path d="M1480.72 737.65C1479.19 934.733 1738.82 1024.33 1914.65 855.599C2095.21 682.34 1939.64 419.252 1740.23 306.08C1522.56 182.553 1323.33 236.78 1348.94 416.406C1366.24 537.728 1482.37 525.03 1480.72 737.65Z" fill="url(#paint4_linear_53_553)"/>
<path d="M1494.99 872.273C1479.06 756.244 1456.25 567.215 1335.2 581.742C1214.14 596.269 1175.4 886.182 1359.41 930.379C1543.41 974.576 1504.81 943.8 1494.99 872.273Z" fill="url(#paint5_linear_53_553)"/>
<path d="M451.29 49.7352C467.864 -42.7178 357.59 -126.809 353.478 21.6852C349.366 170.179 434.717 142.188 451.29 49.7352Z" fill="url(#paint6_linear_53_553)"/>
<path d="M1209.67 420.891C1167.97 503.324 1244.38 636.929 1290.1 563.285C1335.83 489.641 1253.29 334.642 1209.67 420.891Z" fill="url(#paint7_linear_53_553)"/>
</g>
</g>
<mask id="mask1_53_553" style="mask-type:luminance" maskUnits="userSpaceOnUse" x="-135" y="-604" width="2055" height="1370">
<path d="M1920 -603.561H-134.229V765.925H1920V-603.561Z" fill="white"/>
</mask>
<g mask="url(#mask1_53_553)">
<path d="M1620.51 491.863C1565.93 514.775 1612.46 578.407 1650.87 556.135C1689.27 533.863 1689.44 462.931 1620.51 491.863Z" fill="url(#paint8_linear_53_553)"/>
<path d="M1710.93 459.171C1683.43 471.206 1696.26 510.571 1724.63 494.703C1753 478.835 1746.33 443.676 1710.93 459.171Z" fill="url(#paint9_linear_53_553)"/>
<path d="M1693.32 561.922C1649.58 608.396 1577.54 548.661 1564.52 654.509C1552.96 748.551 1740.78 864.482 1888.92 776.619C2037.05 688.756 1990.09 503.619 1889.15 471.624C1788.2 439.629 1768.23 482.344 1693.32 561.922Z" fill="url(#paint10_linear_53_553)"/>
<path style="mix-blend-mode:overlay" opacity="0.2" d="M1707.52 588.813C1663.77 635.287 1591.73 575.551 1578.72 681.4C1567.15 775.441 1754.98 891.373 1903.11 803.509C2051.25 715.645 2004.29 530.509 1903.34 498.515C1802.4 466.521 1782.43 509.234 1707.52 588.813Z" fill="url(#paint11_linear_53_553)"/>
<path style="mix-blend-mode:overlay" opacity="0.2" d="M1727.05 629.816C1683.3 676.289 1611.26 616.554 1598.25 722.403C1586.68 816.444 1774.5 932.376 1922.64 844.512C2070.77 756.648 2023.81 571.512 1922.87 539.518C1821.92 507.524 1801.96 550.237 1727.05 629.816Z" fill="url(#paint12_linear_53_553)"/>
<path style="mix-blend-mode:overlay" opacity="0.2" d="M1746.58 670.818C1702.84 717.292 1630.8 657.557 1617.78 763.406C1606.21 857.447 1794.03 973.378 1942.17 885.515C2090.3 797.652 2043.35 612.515 1942.4 580.52C1841.45 548.525 1821.49 591.24 1746.58 670.818Z" fill="url(#paint13_linear_53_553)"/>
<path d="M1967.87 401.849C1947.85 399.902 1949.86 344.157 1912.53 357.962C1875.2 371.767 1865.02 459.062 1960.15 478.509C2055.28 497.956 2023.89 407.295 1967.87 401.849Z" fill="url(#paint14_linear_53_553)"/>
<path d="M359.408 265.082C326.788 318.831 305.608 408.164 176.262 411.221C39.8419 414.444 -81.7381 289.171 -58.3731 106.192C-35.4191 -73.5371 218.938 -196.47 457.219 -163.208C663.04 -134.479 647.371 43.774 575.719 100.841C504.067 157.908 432 145.473 359.408 265.082Z" fill="url(#paint15_linear_53_553)"/>
<path style="mix-blend-mode:overlay" opacity="0.2" d="M320.534 221.8C287.914 275.549 266.734 364.883 137.387 367.939C0.966904 371.162 -120.613 245.889 -97.2481 62.9099C-74.2931 -116.819 180.063 -239.752 418.345 -206.49C624.166 -177.76 608.496 0.493042 536.845 57.5591C465.194 114.625 393.125 102.191 320.534 221.8Z" fill="url(#paint16_linear_53_553)"/>
<path style="mix-blend-mode:overlay" opacity="0.2" d="M241.852 177.314C209.232 231.062 188.052 320.396 58.7049 323.452C-77.7151 326.675 -199.295 201.402 -175.93 18.4241C-152.975 -161.306 101.382 -284.239 339.663 -250.976C545.484 -222.246 529.814 -43.993 458.163 13.073C386.512 70.139 314.443 57.7 241.852 177.314Z" fill="url(#paint17_linear_53_553)"/>
<path style="mix-blend-mode:overlay" opacity="0.2" d="M163.17 132.827C130.55 186.575 109.37 275.909 -19.9771 278.966C-156.396 282.189 -277.977 156.916 -254.612 -26.063C-231.657 -205.793 22.6998 -328.726 260.981 -295.463C466.802 -266.734 451.132 -88.481 379.481 -31.415C307.83 25.651 235.761 13.2179 163.17 132.827Z" fill="url(#paint18_linear_53_553)"/>
<path d="M462.221 178.414C413.536 200.514 419.295 279.114 478.421 260.414C537.547 241.714 550.838 138.192 462.221 178.414Z" fill="url(#paint19_linear_53_553)"/>
<path d="M378.881 296.3C355.747 336.593 386.41 391.314 416.137 352.044C445.864 312.774 402.016 256.01 378.881 296.3Z" fill="url(#paint20_linear_53_553)"/>
<path style="mix-blend-mode:overlay" opacity="0.3" d="M24.0909 182.758C24.0909 182.758 195.791 67.8369 279.301 230.431C354.295 376.45 374.02 376.578 580.741 380.009C855.919 384.577 851.351 656.329 791.977 734.695H20.1189L24.0909 182.758Z" fill="url(#paint21_linear_53_553)"/>
<path d="M-1.93712 739.274C-137.325 638.354 -181.243 406.964 -32.2371 301.095C116.769 195.226 228.969 264.335 285.063 374.615C341.157 484.895 421.81 474.6 525.24 467.25C628.67 459.9 770.669 489.306 756.64 624.583C742.611 759.86 270.28 942.189 -1.93712 739.274Z" fill="url(#paint22_linear_53_553)"/>
<g style="mix-blend-mode:overlay" opacity="0.8">
<path opacity="0.032" d="M7.56299 278.323C7.56299 278.323 117.463 221.134 205.801 297.923C294.139 374.712 291.048 502.455 466.119 480.9C641.19 459.345 783.494 501.129 734.16 681.822" stroke="white" stroke-width="0.79" stroke-miterlimit="10"/>
<path opacity="0.065" d="M-1.9801 287.547C-1.9801 287.547 107.629 230.109 195.968 306.898C284.307 383.687 281.211 511.349 456.282 489.798C631.353 468.247 773.517 511.507 724.811 690.938" stroke="white" stroke-width="0.831" stroke-miterlimit="10"/>
<path opacity="0.097" d="M-11.5221 296.77C-11.5221 296.77 97.7959 239.083 186.135 315.87C274.474 392.657 271.374 520.239 446.445 498.684C621.516 477.129 763.545 521.875 715.462 700.042" stroke="white" stroke-width="0.871" stroke-miterlimit="10"/>
<path opacity="0.129" d="M-21.0651 305.994C-21.0651 305.994 87.9629 248.057 176.302 324.847C264.641 401.637 261.537 529.134 436.608 507.579C611.679 486.024 753.565 532.251 706.108 709.155" stroke="white" stroke-width="0.911" stroke-miterlimit="10"/>
<path opacity="0.161" d="M-30.6071 315.217C-30.6071 315.217 78.1299 257.032 166.469 333.817C254.808 410.602 251.7 538.017 426.769 516.467C601.838 494.917 743.587 542.62 696.762 718.267" stroke="white" stroke-width="0.952" stroke-miterlimit="10"/>
<path opacity="0.194" d="M-40.15 324.441C-40.15 324.441 68.3 266.006 156.636 342.8C244.972 419.594 241.863 546.923 416.936 525.368C592.009 503.813 733.613 553 687.415 727.376" stroke="white" stroke-width="0.992" stroke-miterlimit="10"/>
<path opacity="0.226" d="M-49.6931 333.665C-49.6931 333.665 58.4639 274.981 146.807 351.765C235.15 428.549 232.03 555.806 407.101 534.251C582.172 512.696 723.641 563.367 678.07 736.482" stroke="white" stroke-width="1.032" stroke-miterlimit="10"/>
<path opacity="0.258" d="M-59.2351 342.888C-59.2351 342.888 48.6309 283.955 136.97 360.744C225.309 437.533 222.189 564.704 397.26 543.149C572.331 521.594 713.66 573.749 668.717 745.598" stroke="white" stroke-width="1.073" stroke-miterlimit="10"/>
<path opacity="0.29" d="M-68.7781 352.112C-68.7781 352.112 38.7979 292.929 127.137 369.719C215.476 446.509 212.352 573.596 387.423 552.041C562.494 530.486 703.684 584.119 659.368 754.708" stroke="white" stroke-width="1.113" stroke-miterlimit="10"/>
<path opacity="0.323" d="M-78.321 361.335C-78.321 361.335 28.965 301.9 117.3 378.693C205.635 455.486 202.511 582.493 377.582 560.934C552.653 539.375 693.704 594.493 650.015 763.819" stroke="white" stroke-width="1.153" stroke-miterlimit="10"/>
<path opacity="0.355" d="M-87.863 370.559C-87.863 370.559 19.132 310.878 107.471 387.667C195.81 464.456 192.678 591.381 367.748 569.827C542.818 548.273 683.732 604.867 640.67 772.927" stroke="white" stroke-width="1.194" stroke-miterlimit="10"/>
<path opacity="0.387" d="M-97.406 379.782C-97.406 379.782 9.294 319.852 97.638 396.642C185.982 473.432 182.838 600.274 357.911 578.719C532.984 557.164 673.756 615.241 631.321 782.04" stroke="white" stroke-width="1.234" stroke-miterlimit="10"/>
<path opacity="0.419" d="M-106.948 389.006C-106.948 389.006 -0.534004 328.827 87.805 405.616C176.144 482.405 173.005 609.166 348.074 587.616C523.143 566.066 663.774 625.616 621.974 791.155" stroke="white" stroke-width="1.274" stroke-miterlimit="10"/>
<path opacity="0.452" d="M-116.491 398.23C-116.491 398.23 -10.3671 337.801 77.9719 414.59C166.311 491.379 163.166 618.059 338.237 596.504C513.308 574.949 653.803 635.988 612.623 800.262" stroke="white" stroke-width="1.315" stroke-miterlimit="10"/>
<path opacity="0.484" d="M-126.034 407.453C-126.034 407.453 -20.2001 346.776 68.1389 423.565C156.478 500.354 153.329 626.951 328.4 605.4C503.471 583.849 643.827 646.365 603.274 809.375" stroke="white" stroke-width="1.355" stroke-miterlimit="10"/>
<path opacity="0.516" d="M-135.576 416.677C-135.576 416.677 -30.033 355.75 58.306 432.539C146.645 509.328 143.492 635.839 318.563 614.289C493.634 592.739 633.851 656.736 593.926 818.483" stroke="white" stroke-width="1.395" stroke-miterlimit="10"/>
<path opacity="0.548" d="M-145.119 425.9C-145.119 425.9 -39.866 364.724 48.473 441.514C136.812 518.304 133.655 644.736 308.726 623.182C483.797 601.628 623.875 667.109 584.577 827.593" stroke="white" stroke-width="1.435" stroke-miterlimit="10"/>
<path opacity="0.581" d="M-154.662 435.124C-154.662 435.124 -49.7001 373.7 38.6399 450.488C126.98 527.276 123.818 653.629 298.889 632.074C473.96 610.519 613.9 677.483 575.228 836.7" stroke="white" stroke-width="1.476" stroke-miterlimit="10"/>
<path opacity="0.613" d="M-164.2 444.347C-164.2 444.347 -59.5281 382.673 28.8109 459.462C117.15 536.251 113.985 662.522 289.056 640.967C464.127 619.412 603.926 687.857 565.883 845.815" stroke="white" stroke-width="1.516" stroke-miterlimit="10"/>
<path opacity="0.645" d="M-173.747 453.571C-173.747 453.571 -69.3651 391.647 18.9739 468.437C107.313 545.227 104.144 671.414 279.215 649.859C454.286 628.304 593.946 698.23 556.53 854.925" stroke="white" stroke-width="1.556" stroke-miterlimit="10"/>
<path opacity="0.677" d="M-183.289 462.794C-183.289 462.794 -79.1981 400.622 9.14095 477.411C97.4799 554.2 94.3069 680.311 269.378 658.752C444.449 637.193 583.97 708.604 547.178 864.036" stroke="white" stroke-width="1.597" stroke-miterlimit="10"/>
<path opacity="0.71" d="M-192.832 472.018C-192.832 472.018 -89.032 409.596 -0.692032 486.385C87.648 563.174 84.47 689.2 259.541 667.644C434.612 646.088 573.994 718.978 537.832 873.144" stroke="white" stroke-width="1.637" stroke-miterlimit="10"/>
<path opacity="0.742" d="M-202.375 481.242C-202.375 481.242 -98.864 418.571 -10.525 495.36C77.814 572.149 74.633 698.092 249.7 676.537C424.767 654.982 564.013 729.352 528.479 882.257" stroke="white" stroke-width="1.677" stroke-miterlimit="10"/>
<path opacity="0.774" d="M-211.917 490.465C-211.917 490.465 -108.697 427.545 -20.3581 504.334C67.9809 581.123 64.7959 706.984 239.867 685.429C414.938 663.874 554.041 739.729 519.134 891.368" stroke="white" stroke-width="1.718" stroke-miterlimit="10"/>
<path opacity="0.806" d="M-221.46 499.689C-221.46 499.689 -118.53 436.519 -30.1911 513.309C58.1479 590.099 54.9589 715.877 230.03 694.322C405.101 672.767 544.065 750.099 509.785 900.479" stroke="white" stroke-width="1.758" stroke-miterlimit="10"/>
<path opacity="0.839" d="M-231 508.912C-231 508.912 -128.361 445.494 -40.022 522.283C48.317 599.072 45.124 724.769 220.195 703.214C395.266 681.659 534.095 760.473 500.438 909.589" stroke="white" stroke-width="1.798" stroke-miterlimit="10"/>
<path opacity="0.871" d="M-240.545 518.136C-240.545 518.136 -138.196 454.468 -49.857 531.257C38.482 608.046 35.285 733.662 210.356 712.107C385.427 690.552 524.113 770.847 491.087 918.7" stroke="white" stroke-width="1.839" stroke-miterlimit="10"/>
<path opacity="0.903" d="M-250.088 527.359C-250.088 527.359 -148.029 463.442 -59.688 540.232C28.653 617.022 25.448 742.554 200.519 721C375.59 699.446 514.136 781.221 481.738 927.812" stroke="white" stroke-width="1.879" stroke-miterlimit="10"/>
<path opacity="0.935" d="M-259.63 536.583C-259.63 536.583 -157.862 472.417 -69.5231 549.206C18.8159 625.995 15.6109 751.447 190.682 729.892C365.753 708.337 504.16 791.592 472.389 936.921" stroke="white" stroke-width="1.919" stroke-miterlimit="10"/>
<path opacity="0.968" d="M-269.173 545.807C-269.173 545.807 -167.695 481.391 -79.3561 558.18C8.9829 634.969 5.7739 760.339 180.844 738.78C355.914 717.221 494.183 801.964 463.044 946.028" stroke="white" stroke-width="1.96" stroke-miterlimit="10"/>
<path d="M-278.716 555.03C-278.716 555.03 -177.528 490.366 -89.1891 567.155C-0.85006 643.944 -4.06308 769.232 171.011 747.677C346.085 726.122 484.211 812.342 453.694 955.143" stroke="white" stroke-width="2" stroke-miterlimit="10"/>
</g>
<path style="mix-blend-mode:overlay" opacity="0.2" d="M-28.439 789.289C-163.827 688.369 -207.744 456.979 -58.739 351.11C90.266 245.241 202.467 314.35 258.561 424.63C314.655 534.91 395.299 524.617 498.73 517.265C602.161 509.913 744.158 539.321 730.13 674.598C716.102 809.875 243.778 992.2 -28.439 789.289Z" fill="url(#paint23_linear_53_553)"/>
<path style="mix-blend-mode:overlay" opacity="0.2" d="M-82.5001 856.555C-217.888 755.634 -261.8 524.245 -112.795 418.376C36.2099 312.507 148.411 381.616 204.505 491.896C260.599 602.176 341.244 591.883 444.674 584.531C548.104 577.179 690.102 606.587 676.074 741.864C662.046 877.141 189.717 1059.47 -82.5001 856.555Z" fill="url(#paint24_linear_53_553)"/>
<path style="mix-blend-mode:overlay" opacity="0.2" d="M-133.688 922.3C-269.076 821.38 -312.993 589.99 -163.983 484.122C-14.9731 378.254 97.2229 447.362 153.317 557.642C209.411 667.922 290.055 657.629 393.486 650.277C496.917 642.925 638.914 672.333 624.886 807.609C610.858 942.885 138.529 1125.21 -133.688 922.3Z" fill="url(#paint25_linear_53_553)"/>
<path d="M100.789 222.885C100.789 222.885 225.347 203.43 301.816 349.662C356.743 454.7 422.379 454.712 545.165 444.745C592.021 440.945 789.94 432.229 792.898 607.124" stroke="#707070" stroke-width="2" stroke-linecap="round" stroke-linejoin="round"/>
<path d="M851.132 603.389C765.583 616.34 777.504 775.425 884.44 759.251C991.376 743.077 931.67 591.2 851.132 603.389Z" fill="url(#paint26_linear_53_553)"/>
<path d="M40.8839 144.206C-50.1531 176.168 -3.28404 236.841 82.54 198.606C168.364 160.371 162.338 101.564 40.8839 144.206Z" fill="url(#paint27_linear_53_553)"/>
<path style="mix-blend-mode:overlay" opacity="0.3" d="M1256.89 12.7439C1256.89 12.7439 1248.06 262.804 1400.09 297.514C1552.12 332.224 1583.65 269.265 1683.63 372.376C1803.41 495.899 1859.32 403.615 1937.15 368.876V12.7439H1256.89Z" fill="url(#paint28_linear_53_553)"/>
<path d="M1707.31 -78.7389C1567.67 -92.9539 1274.23 -70.3038 1307.89 122.506C1341.54 315.316 1550.76 197.083 1653.17 248.969C1755.59 300.855 1846.36 418.429 1973.72 301.796C2106.42 180.269 1967.73 -52.2279 1707.31 -78.7389Z" fill="url(#paint29_linear_53_553)"/>
<path style="mix-blend-mode:overlay" opacity="0.2" d="M1751.82 -117.39C1612.19 -131.605 1318.75 -108.954 1352.41 83.856C1386.06 276.666 1595.28 158.432 1697.69 210.318C1800.11 262.204 1890.88 379.779 2018.24 263.146C2150.94 141.619 2012.25 -90.8789 1751.82 -117.39Z" fill="url(#paint30_linear_53_553)"/>
<path style="mix-blend-mode:overlay" opacity="0.2" d="M1803.89 -174.569C1664.25 -188.784 1370.82 -166.133 1404.47 26.677C1438.12 219.487 1647.34 101.254 1749.76 153.14C1852.17 205.026 1942.94 322.6 2070.3 205.967C2203 84.44 2064.32 -148.057 1803.89 -174.569Z" fill="url(#paint31_linear_53_553)"/>
<path style="mix-blend-mode:overlay" opacity="0.2" d="M1849.28 -236.146C1709.64 -250.361 1416.21 -227.71 1449.86 -34.8999C1483.51 157.91 1692.73 39.676 1795.15 91.563C1897.56 143.45 1988.34 261.023 2115.69 144.39C2248.4 22.8629 2109.71 -209.634 1849.28 -236.146Z" fill="url(#paint32_linear_53_553)"/>
<g style="mix-blend-mode:overlay" opacity="0.8">
<path opacity="0.032" d="M1347.58 -4.56006C1319.57 25.1049 1305.56 64.2201 1314.46 115.258C1348.11 308.068 1557.33 189.835 1659.75 241.721C1762.16 293.607 1852.94 411.182 1980.29 294.549" stroke="white" stroke-width="0.79" stroke-linecap="round" stroke-linejoin="round"/>
<path opacity="0.065" d="M1354.15 -11.8069C1326.14 17.8571 1312.13 56.972 1321.04 108.011C1354.69 300.821 1563.91 182.587 1666.32 234.474C1768.74 286.361 1859.51 403.934 1986.87 287.301" stroke="white" stroke-width="0.831" stroke-linecap="round" stroke-linejoin="round"/>
<path opacity="0.097" d="M1360.73 -19.0549C1332.72 10.6091 1318.71 49.7249 1327.61 100.763C1361.26 293.573 1570.48 175.34 1672.9 227.226C1775.31 279.112 1866.09 396.686 1993.45 280.053" stroke="white" stroke-width="0.871" stroke-linecap="round" stroke-linejoin="round"/>
<path opacity="0.129" d="M1367.31 -26.3C1339.29 3.36495 1325.28 42.4801 1334.19 93.5181C1367.84 286.328 1577.06 168.095 1679.48 219.981C1781.89 271.867 1872.66 389.442 2000.02 272.808" stroke="white" stroke-width="0.911" stroke-linecap="round" stroke-linejoin="round"/>
<path opacity="0.161" d="M1373.88 -33.55C1345.87 -3.88605 1331.86 35.2291 1340.77 86.2681C1374.42 279.078 1583.64 160.844 1686.05 212.731C1788.47 264.618 1879.24 382.191 2006.6 265.558" stroke="white" stroke-width="0.952" stroke-linecap="round" stroke-linejoin="round"/>
<path opacity="0.194" d="M1380.46 -40.8C1352.45 -11.136 1338.43 27.9801 1347.34 79.0181C1380.99 271.828 1590.21 153.595 1692.63 205.481C1795.04 257.367 1885.82 374.941 2013.17 258.308" stroke="white" stroke-width="0.992" stroke-linecap="round" stroke-linejoin="round"/>
<path opacity="0.226" d="M1387.03 -48.0459C1359.02 -18.3809 1345.01 20.734 1353.92 71.772C1387.57 264.582 1596.79 146.349 1699.21 198.235C1801.62 250.121 1892.39 367.696 2019.75 251.062" stroke="white" stroke-width="1.032" stroke-linecap="round" stroke-linejoin="round"/>
<path opacity="0.258" d="M1393.61 -55.293C1365.6 -25.629 1351.59 13.4859 1360.49 64.5249C1394.15 257.335 1603.37 139.101 1705.78 190.988C1808.2 242.875 1898.97 360.448 2026.33 243.815" stroke="white" stroke-width="1.073" stroke-linecap="round" stroke-linejoin="round"/>
<path opacity="0.29" d="M1400.19 -62.541C1372.17 -32.877 1358.16 6.2391 1367.07 57.2771C1400.72 250.087 1609.94 131.854 1712.36 183.74C1814.77 235.626 1905.54 353.2 2032.9 236.567" stroke="white" stroke-width="1.113" stroke-linecap="round" stroke-linejoin="round"/>
<path opacity="0.323" d="M1406.76 -69.7891C1378.75 -40.1241 1364.74 -1.00895 1373.65 50.0291C1407.3 242.839 1616.52 124.606 1718.93 176.492C1821.35 228.378 1912.12 345.953 2039.48 229.319" stroke="white" stroke-width="1.153" stroke-linecap="round" stroke-linejoin="round"/>
<path opacity="0.355" d="M1413.34 -77.0359C1385.33 -47.3719 1371.32 -8.25702 1380.22 42.782C1413.87 235.592 1623.09 117.358 1725.51 169.245C1827.93 221.132 1918.7 338.705 2046.05 222.072" stroke="white" stroke-width="1.194" stroke-linecap="round" stroke-linejoin="round"/>
<path opacity="0.387" d="M1419.91 -84.2839C1391.9 -54.6199 1377.89 -15.5041 1386.8 35.5339C1420.45 228.344 1629.67 110.111 1732.09 161.997C1834.5 213.883 1925.27 331.457 2052.63 214.824" stroke="white" stroke-width="1.234" stroke-linecap="round" stroke-linejoin="round"/>
<path opacity="0.419" d="M1426.49 -91.532C1398.48 -61.867 1384.47 -22.7521 1393.38 28.2859C1427.03 221.096 1636.25 102.863 1738.66 154.749C1841.08 206.635 1931.85 324.21 2059.21 207.576" stroke="white" stroke-width="1.274" stroke-linecap="round" stroke-linejoin="round"/>
<path opacity="0.452" d="M1433.07 -98.7791C1405.06 -69.1151 1391.04 -29.9999 1399.95 21.0391C1433.6 213.849 1642.82 95.615 1745.24 147.502C1847.65 199.389 1938.42 316.962 2065.78 200.329" stroke="white" stroke-width="1.315" stroke-linecap="round" stroke-linejoin="round"/>
<path opacity="0.484" d="M1439.64 -106.027C1411.63 -76.3631 1397.62 -37.247 1406.53 13.791C1440.18 206.601 1649.4 88.3679 1751.81 140.254C1854.23 192.14 1945 309.714 2072.36 193.081" stroke="white" stroke-width="1.355" stroke-linecap="round" stroke-linejoin="round"/>
<path opacity="0.516" d="M1446.22 -113.275C1418.21 -83.6099 1404.2 -44.495 1413.1 6.54297C1446.75 199.353 1655.97 81.1201 1758.39 133.006C1860.8 184.892 1951.58 302.467 2078.94 185.833" stroke="white" stroke-width="1.395" stroke-linecap="round" stroke-linejoin="round"/>
<path opacity="0.548" d="M1452.8 -120.522C1424.79 -90.858 1410.78 -51.7431 1419.69 -0.705078C1453.34 192.105 1662.56 73.872 1764.97 125.759C1867.39 177.646 1958.16 295.219 2085.52 178.586" stroke="white" stroke-width="1.435" stroke-linecap="round" stroke-linejoin="round"/>
<path opacity="0.581" d="M1459.37 -127.77C1431.36 -98.106 1417.35 -58.9899 1426.26 -7.9519C1459.91 184.858 1669.13 66.625 1771.54 118.511C1873.96 170.397 1964.73 287.971 2092.09 171.338" stroke="white" stroke-width="1.476" stroke-linecap="round" stroke-linejoin="round"/>
<path opacity="0.613" d="M1465.95 -135.018C1437.94 -105.353 1423.93 -66.2379 1432.83 -15.2C1466.48 177.61 1675.7 59.3769 1778.12 111.263C1880.54 163.149 1971.31 280.724 2098.67 164.09" stroke="white" stroke-width="1.516" stroke-linecap="round" stroke-linejoin="round"/>
<path opacity="0.645" d="M1472.52 -142.265C1444.51 -112.601 1430.5 -73.486 1439.41 -22.448C1473.06 170.362 1682.28 52.1289 1784.69 104.015C1887.11 155.901 1977.88 273.476 2105.24 156.843" stroke="white" stroke-width="1.556" stroke-linecap="round" stroke-linejoin="round"/>
<path opacity="0.677" d="M1479.1 -149.513C1451.09 -119.849 1437.08 -80.7331 1445.99 -29.6951C1479.64 163.115 1688.86 44.8821 1791.27 96.7681C1893.69 148.654 1984.46 266.228 2111.82 149.595" stroke="white" stroke-width="1.597" stroke-linecap="round" stroke-linejoin="round"/>
<path opacity="0.71" d="M1485.68 -156.761C1457.66 -127.096 1443.65 -87.9811 1452.56 -36.9431C1486.21 155.867 1695.43 37.634 1797.85 89.52C1900.26 141.406 1991.03 258.981 2118.39 142.347" stroke="white" stroke-width="1.637" stroke-linecap="round" stroke-linejoin="round"/>
<path opacity="0.742" d="M1492.25 -164.008C1464.24 -134.344 1450.23 -95.2289 1459.14 -44.1909C1492.79 148.619 1702.01 30.386 1804.42 82.272C1906.84 134.158 1997.61 251.733 2124.97 135.1" stroke="white" stroke-width="1.677" stroke-linecap="round" stroke-linejoin="round"/>
<path opacity="0.774" d="M1498.83 -171.256C1470.82 -141.592 1456.81 -102.476 1465.71 -51.438C1499.36 141.372 1708.58 23.1389 1811 75.0249C1913.41 126.911 2004.19 244.485 2131.54 127.852" stroke="white" stroke-width="1.718" stroke-linecap="round" stroke-linejoin="round"/>
<path opacity="0.806" d="M1505.4 -178.5C1477.39 -148.835 1463.38 -109.72 1472.29 -58.6819C1505.94 134.128 1715.16 15.895 1817.57 67.781C1919.99 119.667 2010.76 237.241 2138.12 120.608" stroke="white" stroke-width="1.758" stroke-linecap="round" stroke-linejoin="round"/>
<path opacity="0.839" d="M1511.98 -185.751C1483.97 -156.087 1469.96 -116.972 1478.87 -65.9341C1512.52 126.876 1721.74 8.64305 1824.15 60.5291C1926.57 112.415 2017.34 229.99 2144.7 113.357" stroke="white" stroke-width="1.798" stroke-linecap="round" stroke-linejoin="round"/>
<path opacity="0.871" d="M1518.56 -193C1490.55 -163.336 1476.53 -124.22 1485.44 -73.1819C1519.09 119.628 1728.31 1.395 1830.73 53.281C1933.14 105.167 2023.91 222.741 2151.27 106.108" stroke="white" stroke-width="1.839" stroke-linecap="round" stroke-linejoin="round"/>
<path opacity="0.903" d="M1525.13 -200.247C1497.12 -170.582 1483.11 -131.467 1492.02 -80.429C1525.67 112.381 1734.89 -5.85207 1837.3 46.0339C1939.72 97.9199 2030.49 215.494 2157.85 98.8611" stroke="white" stroke-width="1.879" stroke-linecap="round" stroke-linejoin="round"/>
<path opacity="0.935" d="M1531.71 -207.494C1503.7 -177.83 1489.69 -138.715 1498.59 -87.677C1532.24 105.133 1741.46 -13.1001 1843.88 38.7859C1946.29 90.6719 2037.07 208.247 2164.43 91.613" stroke="white" stroke-width="1.919" stroke-linecap="round" stroke-linejoin="round"/>
<path opacity="0.968" d="M1538.29 -214.742C1510.27 -185.078 1496.26 -145.963 1505.17 -94.9241C1538.82 97.8859 1748.04 -20.3469 1850.46 31.5391C1952.87 83.4251 2043.64 201 2171 84.366" stroke="white" stroke-width="1.96" stroke-linecap="round" stroke-linejoin="round"/>
<path d="M1544.86 -221.99C1516.85 -192.325 1502.84 -153.21 1511.75 -102.172C1545.4 90.6379 1754.62 -27.595 1857.03 24.291C1959.45 76.177 2050.22 193.751 2177.58 77.1179" stroke="white" stroke-width="2" stroke-linecap="round" stroke-linejoin="round"/>
</g>
<path d="M1294.37 170.4C1294.37 170.4 1311.4 270.144 1465.34 258.9C1570.08 251.246 1625.73 243.914 1688.8 292.747C1751.87 341.58 1798.26 379.214 1867.7 374.047" stroke="#707070" stroke-width="2" stroke-linecap="round" stroke-linejoin="round"/>
<path d="M1233.27 -4.42893C1157.69 14.2481 1198.15 124.614 1255.21 97.45C1312.27 70.286 1291.79 -18.8889 1233.27 -4.42893Z" fill="url(#paint33_linear_53_553)"/>
<path d="M1269.16 112.918C1238.43 129.788 1257.46 170.761 1279.4 157.505C1301.34 144.249 1299.88 96.0469 1269.16 112.918Z" fill="url(#paint34_linear_53_553)"/>
</g>
<defs>
<linearGradient id="paint0_linear_53_553" x1="-31.58" y1="111.065" x2="1933" y2="111.065" gradientUnits="userSpaceOnUse">
<stop stop-color="#180156"/>
<stop offset="0.02" stop-color="#1B005D"/>
<stop offset="0.078" stop-color="#24006E"/>
<stop offset="0.151" stop-color="#2A007A"/>
<stop offset="0.253" stop-color="#2E0081"/>
<stop offset="0.536" stop-color="#2F0083"/>
<stop offset="0.781" stop-color="#2E0081"/>
<stop offset="0.869" stop-color="#2A007A"/>
<stop offset="0.932" stop-color="#24006E"/>
<stop offset="0.983" stop-color="#1B005D"/>
<stop offset="1" stop-color="#180156"/>
</linearGradient>
<linearGradient id="paint1_linear_53_553" x1="-141.976" y1="129.421" x2="1998.65" y2="129.421" gradientUnits="userSpaceOnUse">
<stop stop-color="white"/>
<stop offset="0.166" stop-color="white" stop-opacity="0.741"/>
<stop offset="0.332" stop-color="white" stop-opacity="0.514"/>
<stop offset="0.49" stop-color="white" stop-opacity="0.329"/>
<stop offset="0.639" stop-color="white" stop-opacity="0.188"/>
<stop offset="0.778" stop-color="white" stop-opacity="0.082"/>
<stop offset="0.902" stop-color="white" stop-opacity="0.024"/>
<stop offset="0.999" stop-color="white" stop-opacity="0"/>
</linearGradient>
<linearGradient id="paint2_linear_53_553" x1="1057.06" y1="-147.09" x2="407.333" y2="-951.33" gradientUnits="userSpaceOnUse">
<stop offset="0.001" stop-color="white" stop-opacity="0"/>
<stop offset="0.045" stop-color="white" stop-opacity="0.094"/>
<stop offset="0.15" stop-color="white" stop-opacity="0.306"/>
<stop offset="0.26" stop-color="white" stop-opacity="0.49"/>
<stop offset="0.372" stop-color="white" stop-opacity="0.647"/>
<stop offset="0.486" stop-color="white" stop-opacity="0.776"/>
<stop offset="0.603" stop-color="white" stop-opacity="0.875"/>
<stop offset="0.725" stop-color="white" stop-opacity="0.945"/>
<stop offset="0.853" stop-color="white" stop-opacity="0.988"/>
<stop offset="1" stop-color="white"/>
</linearGradient>
<linearGradient id="paint3_linear_53_553" x1="246.083" y1="-11.0592" x2="157.915" y2="-330.162" gradientUnits="userSpaceOnUse">
<stop offset="0.001" stop-color="white" stop-opacity="0"/>
<stop offset="0.045" stop-color="white" stop-opacity="0.094"/>
<stop offset="0.15" stop-color="white" stop-opacity="0.306"/>
<stop offset="0.26" stop-color="white" stop-opacity="0.49"/>
<stop offset="0.372" stop-color="white" stop-opacity="0.647"/>
<stop offset="0.486" stop-color="white" stop-opacity="0.776"/>
<stop offset="0.603" stop-color="white" stop-opacity="0.875"/>
<stop offset="0.725" stop-color="white" stop-opacity="0.945"/>
<stop offset="0.853" stop-color="white" stop-opacity="0.988"/>
<stop offset="1" stop-color="white"/>
</linearGradient>
<linearGradient id="paint4_linear_53_553" x1="-901.305" y1="-2403.52" x2="-201.035" y2="-1973.48" gradientUnits="userSpaceOnUse">
<stop stop-color="white"/>
<stop offset="0.319" stop-color="white" stop-opacity="0.992"/>
<stop offset="0.456" stop-color="white" stop-opacity="0.965"/>
<stop offset="0.558" stop-color="white" stop-opacity="0.914"/>
<stop offset="0.643" stop-color="white" stop-opacity="0.843"/>
<stop offset="0.717" stop-color="white" stop-opacity="0.753"/>
<stop offset="0.783" stop-color="white" stop-opacity="0.643"/>
<stop offset="0.844" stop-color="white" stop-opacity="0.51"/>
<stop offset="0.901" stop-color="white" stop-opacity="0.353"/>
<stop offset="0.952" stop-color="white" stop-opacity="0.184"/>
<stop offset="0.999" stop-color="white" stop-opacity="0"/>
</linearGradient>
<linearGradient id="paint5_linear_53_553" x1="1457.19" y1="970.876" x2="1149.22" y2="630.603" gradientUnits="userSpaceOnUse">
<stop stop-color="white"/>
<stop offset="0.147" stop-color="white" stop-opacity="0.988"/>
<stop offset="0.275" stop-color="white" stop-opacity="0.945"/>
<stop offset="0.397" stop-color="white" stop-opacity="0.875"/>
<stop offset="0.514" stop-color="white" stop-opacity="0.776"/>
<stop offset="0.628" stop-color="white" stop-opacity="0.647"/>
<stop offset="0.74" stop-color="white" stop-opacity="0.49"/>
<stop offset="0.85" stop-color="white" stop-opacity="0.306"/>
<stop offset="0.955" stop-color="white" stop-opacity="0.094"/>
<stop offset="0.999" stop-color="white" stop-opacity="0"/>
</linearGradient>
<linearGradient id="paint6_linear_53_553" x1="1354.63" y1="-460.401" x2="1514.77" y2="-460.401" gradientUnits="userSpaceOnUse">
<stop offset="0.001" stop-color="white" stop-opacity="0"/>
<stop offset="0.045" stop-color="white" stop-opacity="0.094"/>
<stop offset="0.15" stop-color="white" stop-opacity="0.306"/>
<stop offset="0.26" stop-color="white" stop-opacity="0.49"/>
<stop offset="0.372" stop-color="white" stop-opacity="0.647"/>
<stop offset="0.486" stop-color="white" stop-opacity="0.776"/>
<stop offset="0.603" stop-color="white" stop-opacity="0.875"/>
<stop offset="0.725" stop-color="white" stop-opacity="0.945"/>
<stop offset="0.853" stop-color="white" stop-opacity="0.988"/>
<stop offset="1" stop-color="white"/>
</linearGradient>
<linearGradient id="paint7_linear_53_553" x1="1214.36" y1="379.399" x2="1342.68" y2="504.835" gradientUnits="userSpaceOnUse">
<stop stop-color="white"/>
<stop offset="0.147" stop-color="white" stop-opacity="0.988"/>
<stop offset="0.275" stop-color="white" stop-opacity="0.945"/>
<stop offset="0.397" stop-color="white" stop-opacity="0.875"/>
<stop offset="0.514" stop-color="white" stop-opacity="0.776"/>
<stop offset="0.628" stop-color="white" stop-opacity="0.647"/>
<stop offset="0.74" stop-color="white" stop-opacity="0.49"/>
<stop offset="0.85" stop-color="white" stop-opacity="0.306"/>
<stop offset="0.955" stop-color="white" stop-opacity="0.094"/>
<stop offset="0.999" stop-color="white" stop-opacity="0"/>
</linearGradient>
<linearGradient id="paint8_linear_53_553" x1="1923.97" y1="332.602" x2="2002.46" y2="332.602" gradientUnits="userSpaceOnUse">
<stop stop-color="#362DC5"/>
<stop offset="0.111" stop-color="#3B2BC2"/>
<stop offset="0.255" stop-color="#4B28BC"/>
<stop offset="0.417" stop-color="#6622B2"/>
<stop offset="0.593" stop-color="#8C19A3"/>
<stop offset="0.78" stop-color="#BC0E91"/>
<stop offset="0.973" stop-color="#F6017B"/>
<stop offset="1" stop-color="#FF0078"/>
</linearGradient>
<linearGradient id="paint9_linear_53_553" x1="2008.43" y1="290.533" x2="2065.06" y2="238.041" gradientUnits="userSpaceOnUse">
<stop stop-color="#0093D0"/>
<stop offset="0.216" stop-color="#1678C6"/>
<stop offset="0.676" stop-color="#4E36AE"/>
<stop offset="1" stop-color="#79049C"/>
</linearGradient>
<linearGradient id="paint10_linear_53_553" x1="1922.88" y1="406.48" x2="2328.69" y2="406.48" gradientUnits="userSpaceOnUse">
<stop stop-color="#FFBB73"/>
<stop offset="0.109" stop-color="#FFB072"/>
<stop offset="0.296" stop-color="#FF9470"/>
<stop offset="0.54" stop-color="#FF676C"/>
<stop offset="0.828" stop-color="#FF2868"/>
<stop offset="1" stop-color="#FF0065"/>
</linearGradient>
<linearGradient id="paint11_linear_53_553" x1="1942.94" y1="429.556" x2="2348.76" y2="429.556" gradientUnits="userSpaceOnUse">
<stop offset="0.001" stop-color="white" stop-opacity="0"/>
<stop offset="0.045" stop-color="white" stop-opacity="0.094"/>
<stop offset="0.15" stop-color="white" stop-opacity="0.306"/>
<stop offset="0.26" stop-color="white" stop-opacity="0.49"/>
<stop offset="0.372" stop-color="white" stop-opacity="0.647"/>
<stop offset="0.486" stop-color="white" stop-opacity="0.776"/>
<stop offset="0.603" stop-color="white" stop-opacity="0.875"/>
<stop offset="0.725" stop-color="white" stop-opacity="0.945"/>
<stop offset="0.853" stop-color="white" stop-opacity="0.988"/>
<stop offset="1" stop-color="white"/>
</linearGradient>
<linearGradient id="paint12_linear_53_553" x1="1971.27" y1="465.009" x2="2377.09" y2="465.009" gradientUnits="userSpaceOnUse">
<stop offset="0.001" stop-color="white" stop-opacity="0"/>
<stop offset="0.045" stop-color="white" stop-opacity="0.094"/>
<stop offset="0.15" stop-color="white" stop-opacity="0.306"/>
<stop offset="0.26" stop-color="white" stop-opacity="0.49"/>
<stop offset="0.372" stop-color="white" stop-opacity="0.647"/>
<stop offset="0.486" stop-color="white" stop-opacity="0.776"/>
<stop offset="0.603" stop-color="white" stop-opacity="0.875"/>
<stop offset="0.725" stop-color="white" stop-opacity="0.945"/>
<stop offset="0.853" stop-color="white" stop-opacity="0.988"/>
<stop offset="1" stop-color="white"/>
</linearGradient>
<linearGradient id="paint13_linear_53_553" x1="1999.19" y1="500.46" x2="2405" y2="500.46" gradientUnits="userSpaceOnUse">
<stop offset="0.001" stop-color="white" stop-opacity="0"/>
<stop offset="0.045" stop-color="white" stop-opacity="0.094"/>
<stop offset="0.15" stop-color="white" stop-opacity="0.306"/>
<stop offset="0.26" stop-color="white" stop-opacity="0.49"/>
<stop offset="0.372" stop-color="white" stop-opacity="0.647"/>
<stop offset="0.486" stop-color="white" stop-opacity="0.776"/>
<stop offset="0.603" stop-color="white" stop-opacity="0.875"/>
<stop offset="0.725" stop-color="white" stop-opacity="0.945"/>
<stop offset="0.853" stop-color="white" stop-opacity="0.988"/>
<stop offset="1" stop-color="white"/>
</linearGradient>
<linearGradient id="paint14_linear_53_553" x1="2179.17" y1="161.788" x2="2324.58" y2="161.788" gradientUnits="userSpaceOnUse">
<stop stop-color="#79049C"/>
<stop offset="0.324" stop-color="#4E36AE"/>
<stop offset="0.784" stop-color="#1678C6"/>
<stop offset="1" stop-color="#0093D0"/>
</linearGradient>
<linearGradient id="paint15_linear_53_553" x1="-332.731" y1="80.1424" x2="376.77" y2="80.1424" gradientUnits="userSpaceOnUse">
<stop stop-color="#FFBB73"/>
<stop offset="0.109" stop-color="#FFB072"/>
<stop offset="0.296" stop-color="#FF9470"/>
<stop offset="0.54" stop-color="#FF676C"/>
<stop offset="0.828" stop-color="#FF2868"/>
<stop offset="1" stop-color="#FF0065"/>
</linearGradient>
<linearGradient id="paint16_linear_53_553" x1="-364.066" y1="31.0611" x2="345.435" y2="31.0611" gradientUnits="userSpaceOnUse">
<stop offset="0.001" stop-color="white" stop-opacity="0"/>
<stop offset="0.045" stop-color="white" stop-opacity="0.094"/>
<stop offset="0.15" stop-color="white" stop-opacity="0.306"/>
<stop offset="0.26" stop-color="white" stop-opacity="0.49"/>
<stop offset="0.372" stop-color="white" stop-opacity="0.647"/>
<stop offset="0.486" stop-color="white" stop-opacity="0.776"/>
<stop offset="0.603" stop-color="white" stop-opacity="0.875"/>
<stop offset="0.725" stop-color="white" stop-opacity="0.945"/>
<stop offset="0.853" stop-color="white" stop-opacity="0.988"/>
<stop offset="1" stop-color="white"/>
</linearGradient>
<linearGradient id="paint17_linear_53_553" x1="-433.836" y1="-26.1839" x2="274.98" y2="-26.1839" gradientUnits="userSpaceOnUse">
<stop offset="0.001" stop-color="white" stop-opacity="0"/>
<stop offset="0.045" stop-color="white" stop-opacity="0.094"/>
<stop offset="0.15" stop-color="white" stop-opacity="0.306"/>
<stop offset="0.26" stop-color="white" stop-opacity="0.49"/>
<stop offset="0.372" stop-color="white" stop-opacity="0.647"/>
<stop offset="0.486" stop-color="white" stop-opacity="0.776"/>
<stop offset="0.603" stop-color="white" stop-opacity="0.875"/>
<stop offset="0.725" stop-color="white" stop-opacity="0.945"/>
<stop offset="0.853" stop-color="white" stop-opacity="0.988"/>
<stop offset="1" stop-color="white"/>
</linearGradient>
<linearGradient id="paint18_linear_53_553" x1="-504.292" y1="-82.8488" x2="205.209" y2="-82.8488" gradientUnits="userSpaceOnUse">
<stop offset="0.001" stop-color="white" stop-opacity="0"/>
<stop offset="0.045" stop-color="white" stop-opacity="0.094"/>
<stop offset="0.15" stop-color="white" stop-opacity="0.306"/>
<stop offset="0.26" stop-color="white" stop-opacity="0.49"/>
<stop offset="0.372" stop-color="white" stop-opacity="0.647"/>
<stop offset="0.486" stop-color="white" stop-opacity="0.776"/>
<stop offset="0.603" stop-color="white" stop-opacity="0.875"/>
<stop offset="0.725" stop-color="white" stop-opacity="0.945"/>
<stop offset="0.853" stop-color="white" stop-opacity="0.988"/>
<stop offset="1" stop-color="white"/>
</linearGradient>
<linearGradient id="paint19_linear_53_553" x1="312.231" y1="-598.267" x2="282.268" y2="-487.21" gradientUnits="userSpaceOnUse">
<stop stop-color="#0093D0"/>
<stop offset="0.216" stop-color="#1678C6"/>
<stop offset="0.676" stop-color="#4E36AE"/>
<stop offset="1" stop-color="#79049C"/>
</linearGradient>
<linearGradient id="paint20_linear_53_553" x1="105.812" y1="254.307" x2="61.1554" y2="355.128" gradientUnits="userSpaceOnUse">
<stop stop-color="#362DC5"/>
<stop offset="0.151" stop-color="#6123B4"/>
<stop offset="0.367" stop-color="#99169F"/>
<stop offset="0.567" stop-color="#C50C8E"/>
<stop offset="0.746" stop-color="#E40582"/>
<stop offset="0.896" stop-color="#F8017A"/>
<stop offset="1" stop-color="#FF0078"/>
</linearGradient>
<linearGradient id="paint21_linear_53_553" x1="692.814" y1="841.731" x2="235.307" y2="135.556" gradientUnits="userSpaceOnUse">
<stop stop-color="white"/>
<stop offset="0.166" stop-color="white" stop-opacity="0.741"/>
<stop offset="0.332" stop-color="white" stop-opacity="0.514"/>
<stop offset="0.49" stop-color="white" stop-opacity="0.329"/>
<stop offset="0.639" stop-color="white" stop-opacity="0.188"/>
<stop offset="0.778" stop-color="white" stop-opacity="0.082"/>
<stop offset="0.902" stop-color="white" stop-opacity="0.024"/>
<stop offset="0.999" stop-color="white" stop-opacity="0"/>
</linearGradient>
<linearGradient id="paint22_linear_53_553" x1="626.018" y1="795.009" x2="169.066" y2="132.303" gradientUnits="userSpaceOnUse">
<stop stop-color="#0093D0"/>
<stop offset="0.056" stop-color="#0A86CB"/>
<stop offset="0.277" stop-color="#3257BA"/>
<stop offset="0.489" stop-color="#5033AD"/>
<stop offset="0.686" stop-color="#6619A3"/>
<stop offset="0.862" stop-color="#74099E"/>
<stop offset="1" stop-color="#79049C"/>
</linearGradient>
<linearGradient id="paint23_linear_53_553" x1="599.51" y1="845.022" x2="142.557" y2="182.321" gradientUnits="userSpaceOnUse">
<stop offset="0.001" stop-color="white" stop-opacity="0"/>
<stop offset="0.045" stop-color="white" stop-opacity="0.094"/>
<stop offset="0.15" stop-color="white" stop-opacity="0.306"/>
<stop offset="0.26" stop-color="white" stop-opacity="0.49"/>
<stop offset="0.372" stop-color="white" stop-opacity="0.647"/>
<stop offset="0.486" stop-color="white" stop-opacity="0.776"/>
<stop offset="0.603" stop-color="white" stop-opacity="0.875"/>
<stop offset="0.725" stop-color="white" stop-opacity="0.945"/>
<stop offset="0.853" stop-color="white" stop-opacity="0.988"/>
<stop offset="1" stop-color="white"/>
</linearGradient>
<linearGradient id="paint24_linear_53_553" x1="545.453" y1="912.29" x2="88.4994" y2="249.588" gradientUnits="userSpaceOnUse">
<stop offset="0.001" stop-color="white" stop-opacity="0"/>
<stop offset="0.045" stop-color="white" stop-opacity="0.094"/>
<stop offset="0.15" stop-color="white" stop-opacity="0.306"/>
<stop offset="0.26" stop-color="white" stop-opacity="0.49"/>
<stop offset="0.372" stop-color="white" stop-opacity="0.647"/>
<stop offset="0.486" stop-color="white" stop-opacity="0.776"/>
<stop offset="0.603" stop-color="white" stop-opacity="0.875"/>
<stop offset="0.725" stop-color="white" stop-opacity="0.945"/>
<stop offset="0.853" stop-color="white" stop-opacity="0.988"/>
<stop offset="1" stop-color="white"/>
</linearGradient>
<linearGradient id="paint25_linear_53_553" x1="494.265" y1="978.034" x2="37.3143" y2="315.331" gradientUnits="userSpaceOnUse">
<stop offset="0.001" stop-color="white" stop-opacity="0"/>
<stop offset="0.045" stop-color="white" stop-opacity="0.094"/>
<stop offset="0.15" stop-color="white" stop-opacity="0.306"/>
<stop offset="0.26" stop-color="white" stop-opacity="0.49"/>
<stop offset="0.372" stop-color="white" stop-opacity="0.647"/>
<stop offset="0.486" stop-color="white" stop-opacity="0.776"/>
<stop offset="0.603" stop-color="white" stop-opacity="0.875"/>
<stop offset="0.725" stop-color="white" stop-opacity="0.945"/>
<stop offset="0.853" stop-color="white" stop-opacity="0.988"/>
<stop offset="1" stop-color="white"/>
</linearGradient>
<linearGradient id="paint26_linear_53_553" x1="851.567" y1="596.385" x2="883.426" y2="748.723" gradientUnits="userSpaceOnUse">
<stop stop-color="#FFBB73"/>
<stop offset="0.109" stop-color="#FFB072"/>
<stop offset="0.296" stop-color="#FF9470"/>
<stop offset="0.54" stop-color="#FF676C"/>
<stop offset="0.828" stop-color="#FF2868"/>
<stop offset="1" stop-color="#FF0065"/>
</linearGradient>
<linearGradient id="paint27_linear_53_553" x1="-8.58899" y1="170.092" x2="140.474" y2="170.092" gradientUnits="userSpaceOnUse">
<stop stop-color="#FF0078"/>
<stop offset="0.104" stop-color="#F8017A"/>
<stop offset="0.254" stop-color="#E40582"/>
<stop offset="0.433" stop-color="#C50C8E"/>
<stop offset="0.633" stop-color="#99169F"/>
<stop offset="0.849" stop-color="#6123B4"/>
<stop offset="1" stop-color="#362DC5"/>
</linearGradient>
<linearGradient id="paint28_linear_53_553" x1="1330.27" y1="-64.898" x2="1700.91" y2="577.585" gradientUnits="userSpaceOnUse">
<stop offset="0.001" stop-color="white" stop-opacity="0"/>
<stop offset="0.098" stop-color="white" stop-opacity="0.024"/>
<stop offset="0.222" stop-color="white" stop-opacity="0.082"/>
<stop offset="0.361" stop-color="white" stop-opacity="0.188"/>
<stop offset="0.51" stop-color="white" stop-opacity="0.329"/>
<stop offset="0.668" stop-color="white" stop-opacity="0.514"/>
<stop offset="0.834" stop-color="white" stop-opacity="0.741"/>
<stop offset="1" stop-color="white"/>
</linearGradient>
<linearGradient id="paint29_linear_53_553" x1="1434.03" y1="-66.1444" x2="1687.75" y2="528.716" gradientUnits="userSpaceOnUse">
<stop stop-color="#362DC5"/>
<stop offset="1" stop-color="#FF0078"/>
</linearGradient>
<linearGradient id="paint30_linear_53_553" x1="1478.55" y1="-104.795" x2="1732.27" y2="490.066" gradientUnits="userSpaceOnUse">
<stop offset="0.001" stop-color="white" stop-opacity="0"/>
<stop offset="0.045" stop-color="white" stop-opacity="0.094"/>
<stop offset="0.15" stop-color="white" stop-opacity="0.306"/>
<stop offset="0.26" stop-color="white" stop-opacity="0.49"/>
<stop offset="0.372" stop-color="white" stop-opacity="0.647"/>
<stop offset="0.486" stop-color="white" stop-opacity="0.776"/>
<stop offset="0.603" stop-color="white" stop-opacity="0.875"/>
<stop offset="0.725" stop-color="white" stop-opacity="0.945"/>
<stop offset="0.853" stop-color="white" stop-opacity="0.988"/>
<stop offset="1" stop-color="white"/>
</linearGradient>
<linearGradient id="paint31_linear_53_553" x1="1530.61" y1="-161.974" x2="1784.34" y2="432.887" gradientUnits="userSpaceOnUse">
<stop offset="0.001" stop-color="white" stop-opacity="0"/>
<stop offset="0.045" stop-color="white" stop-opacity="0.094"/>
<stop offset="0.15" stop-color="white" stop-opacity="0.306"/>
<stop offset="0.26" stop-color="white" stop-opacity="0.49"/>
<stop offset="0.372" stop-color="white" stop-opacity="0.647"/>
<stop offset="0.486" stop-color="white" stop-opacity="0.776"/>
<stop offset="0.603" stop-color="white" stop-opacity="0.875"/>
<stop offset="0.725" stop-color="white" stop-opacity="0.945"/>
<stop offset="0.853" stop-color="white" stop-opacity="0.988"/>
<stop offset="1" stop-color="white"/>
</linearGradient>
<linearGradient id="paint32_linear_53_553" x1="1576.01" y1="-223.551" x2="1829.73" y2="371.311" gradientUnits="userSpaceOnUse">
<stop offset="0.001" stop-color="white" stop-opacity="0"/>
<stop offset="0.045" stop-color="white" stop-opacity="0.094"/>
<stop offset="0.15" stop-color="white" stop-opacity="0.306"/>
<stop offset="0.26" stop-color="white" stop-opacity="0.49"/>
<stop offset="0.372" stop-color="white" stop-opacity="0.647"/>
<stop offset="0.486" stop-color="white" stop-opacity="0.776"/>
<stop offset="0.603" stop-color="white" stop-opacity="0.875"/>
<stop offset="0.725" stop-color="white" stop-opacity="0.945"/>
<stop offset="0.853" stop-color="white" stop-opacity="0.988"/>
<stop offset="1" stop-color="white"/>
</linearGradient>
<linearGradient id="paint33_linear_53_553" x1="1233.66" y1="100.973" x2="1248.89" y2="-0.844498" gradientUnits="userSpaceOnUse">
<stop stop-color="#FFBB73"/>
<stop offset="0.109" stop-color="#FFB072"/>
<stop offset="0.296" stop-color="#FF9470"/>
<stop offset="0.54" stop-color="#FF676C"/>
<stop offset="0.828" stop-color="#FF2868"/>
<stop offset="1" stop-color="#FF0065"/>
</linearGradient>
<linearGradient id="paint34_linear_53_553" x1="1289.66" y1="96.6977" x2="1247.46" y2="161.867" gradientUnits="userSpaceOnUse">
<stop stop-color="#362DC5"/>
<stop offset="0.107" stop-color="#422AC0"/>
<stop offset="0.303" stop-color="#6322B3"/>
<stop offset="0.567" stop-color="#99169F"/>
<stop offset="0.883" stop-color="#E20683"/>
<stop offset="1" stop-color="#FF0078"/>
</linearGradient>
</defs>
</svg>
