<svg width="106" height="106" viewBox="0 0 106 106" fill="none" xmlns="http://www.w3.org/2000/svg">
<path d="M4.97 73.6292L2.87002 67.8772C2.86648 67.6397 2.84174 67.4032 2.79605 67.1702C1.63982 62.9698 0.986535 58.6468 0.850004 54.2922C0.821833 54.1467 0.822827 53.9971 0.852933 53.852C0.883039 53.7069 0.941694 53.5693 1.02542 53.4471C1.10914 53.3249 1.21634 53.2205 1.34073 53.14C1.46512 53.0595 1.60422 53.0045 1.75003 52.9782C5.02603 51.8282 8.27899 50.6182 11.533 49.4072C11.9478 49.2562 12.3468 49.0646 12.724 48.8352C13.1483 48.5761 13.4624 48.1699 13.6062 47.694C13.7501 47.2182 13.7138 46.706 13.5041 46.2552C13.0041 45.0822 11.8631 44.6552 10.4041 45.1832C8.45208 45.8732 6.49505 46.6102 4.55105 47.3192L0.96597 48.6283C1.13197 47.2593 1.34407 46.0802 1.42007 44.9052C1.41579 44.5418 1.53747 44.1881 1.76443 43.9043C1.99139 43.6204 2.30963 43.424 2.66507 43.3482C11.5721 40.1482 20.476 36.8712 29.365 33.6262C30.844 33.0862 31.507 31.9492 31.084 30.7262C30.661 29.5032 29.434 29.0332 27.94 29.5322L27.171 29.8132L3.93899 38.2922L2.70401 38.7432C3.28401 37.0632 3.79103 35.6842 4.22903 34.3082C4.31808 34.0016 4.48442 33.7231 4.71206 33.4993C4.93971 33.2756 5.22105 33.114 5.52908 33.0302C10.9851 31.0612 16.413 29.0802 21.861 27.0922C22.2508 26.9613 22.6297 26.7997 22.994 26.6092C23.3916 26.4096 23.7108 26.0826 23.9009 25.6805C24.091 25.2783 24.141 24.8241 24.043 24.3902C23.776 22.9042 22.4611 22.2592 20.8011 22.8652C16.6621 24.3532 12.5371 25.8812 8.42605 27.3822C8.12605 27.4932 7.811 27.5822 7.418 27.7042C12.2047 18.8421 19.4737 11.5696 28.3334 6.77852C37.1931 1.98744 47.2585 -0.113858 57.2951 0.732256C79.7061 2.58226 94.95 17.8132 100.437 30.9582L99.3841 31.3432L87.1911 35.7932C86.8016 35.9236 86.423 36.0848 86.059 36.2752C85.6534 36.5037 85.3369 36.8625 85.1608 37.2934C84.9847 37.7243 84.9594 38.2021 85.089 38.6492C85.1862 39.1049 85.439 39.5124 85.804 39.802C86.1689 40.0915 86.6232 40.245 87.089 40.2362C87.5978 40.2006 88.0983 40.0876 88.573 39.9012C92.773 38.3912 96.958 36.8413 101.151 35.3103L102.285 34.8962C102.722 36.3442 103.106 37.6492 103.535 39.0762L102.219 39.5572L65.742 52.8702C65.2598 53.0296 64.8006 53.2515 64.376 53.5302C63.9853 53.7785 63.6911 54.1527 63.5421 54.591C63.3932 55.0293 63.3985 55.5052 63.557 55.9401C63.6999 56.3984 63.9973 56.7929 64.3985 57.0564C64.7996 57.3199 65.2797 57.4361 65.757 57.3852C66.2589 57.3129 66.7518 57.1872 67.2271 57.0102L103.238 43.8662L104.514 43.4002C104.722 44.9772 104.914 46.3772 105.114 47.8172L103.878 48.2681L76.799 58.1512C76.3143 58.3081 75.8561 58.5375 75.44 58.8313C75.0606 59.1228 74.7919 59.5348 74.6779 59.9995C74.5638 60.4641 74.6113 60.9537 74.8125 61.3878C75.0137 61.8219 75.3567 62.1746 75.7849 62.3879C76.2132 62.6012 76.7013 62.6623 77.169 62.5612C77.5972 62.4619 78.0177 62.3315 78.427 62.1712L104.149 52.7822L105.364 52.3392C105.327 53.6842 105.229 54.7983 105.264 55.9093C105.308 56.2727 105.212 56.6392 104.996 56.9351C104.781 57.231 104.461 57.4343 104.102 57.5042C86.5347 63.8922 68.9654 70.2969 51.3941 76.7182C50.9491 76.8812 50.503 77.0431 50.072 77.2471C49.6307 77.4763 49.2819 77.851 49.0847 78.3076C48.8876 78.7642 48.8541 79.2748 48.99 79.7533C49.1277 80.2141 49.4187 80.614 49.8148 80.8868C50.2109 81.1596 50.6884 81.2889 51.168 81.2533C51.6717 81.1912 52.1654 81.0648 52.637 80.8772L103.337 62.3772L104.593 61.9191C104.247 63.4191 103.893 64.6531 103.693 65.9191C103.643 66.2664 103.489 66.5905 103.252 66.849C103.014 67.1074 102.705 67.2884 102.363 67.3682C93.2004 70.6889 84.043 74.0222 74.891 77.3682L74.121 77.6492C72.645 78.2562 72.055 79.3492 72.513 80.6002C72.977 81.8082 74.1011 82.2462 75.5611 81.7822C75.8321 81.7062 76.0681 81.5982 76.3311 81.5012L100.231 72.7782L101.285 72.3942C100.772 74.0073 100.102 75.566 99.2851 77.0482C98.9976 77.5608 98.5445 77.9607 98 78.1822C87.098 82.2075 76.1907 86.1961 65.278 90.1481C64.8211 90.2914 64.3861 90.4967 63.985 90.7583C63.5625 91.0219 63.2521 91.432 63.1133 91.9104C62.9745 92.3887 63.0172 92.9014 63.2331 93.3502C63.426 93.8085 63.7753 94.1835 64.2188 94.4084C64.6623 94.6333 65.1713 94.6934 65.6551 94.5782C66.0512 94.472 66.4414 94.3449 66.824 94.1972L93.7011 84.3872L94.916 83.9442C94.716 84.2902 94.6771 84.4212 94.5981 84.5192C90.6432 89.7816 85.699 94.2213 80.043 97.5892C77.963 98.8072 75.804 99.8712 73.666 100.995L68.0971 103.028L65.922 103.547C54.8655 106.327 43.2047 105.43 32.7029 100.993C22.2012 96.5566 13.4297 88.821 7.71499 78.9563C6.76299 77.2213 5.893 75.4002 4.97 73.6292Z" fill="#D9E4FB"/>
</svg>
