<svg width="154" height="127" viewBox="0 0 154 127" fill="none" xmlns="http://www.w3.org/2000/svg">
<path d="M0.145081 2.91607C1.12008 0.884065 2.70803 0.208023 4.92303 0.522023C20.645 2.75002 35.8941 6.62211 50.2231 13.6331C56.5231 16.7141 62.6531 20.0991 67.7131 25.0831C73.4801 30.7631 76.813 37.783 78.764 45.523C80.904 54.007 81.1191 62.631 80.4791 71.306C80.4101 72.239 80.309 73.1691 80.194 74.4061C69.438 61.0061 56.9941 50.2441 40.7941 44.5901C62.6147 57.4288 77.2561 75.9714 84.7181 100.218C91.2501 81.1641 103.47 67.1181 121.086 58.0081C118.695 57.8711 111.34 61.2411 104.297 65.9761C99.0385 69.6684 94.1727 73.8904 89.7761 78.576C89.7761 77.46 89.7681 76.345 89.7761 75.23C89.8441 66.811 90.847 58.5841 94.595 50.8851C97.6755 44.6469 102.743 39.6104 109 36.5682C119.555 31.2553 130.943 27.792 142.669 26.3292C144.897 26.0232 147.138 25.8081 149.369 25.5291C150.105 25.3543 150.878 25.4102 151.581 25.6893C152.284 25.9683 152.885 26.4571 153.301 27.0892C153.695 27.7073 153.882 28.4346 153.835 29.1661C153.789 29.8975 153.51 30.595 153.041 31.158C148.988 37.255 146.255 44.1322 145.018 51.3479C144.318 55.4339 143.918 59.58 143.062 63.629C140.61 75.175 133.162 82.229 122.33 86.085C114.852 88.749 107.064 89.5851 99.1951 89.8731C98.7559 89.8733 98.3235 89.9818 97.9361 90.1888C97.5487 90.3958 97.2183 90.6951 96.9741 91.0601C93.6151 95.4991 91.1387 100.541 89.6791 105.913C87.9081 112.045 86.616 118.313 85.087 124.513C84.887 125.313 85.1101 126.613 83.8611 126.588C82.4991 126.556 82.7981 125.226 82.7021 124.361C81.5421 115.013 78.6187 105.969 74.087 97.711C72.665 95.011 71.1521 92.3642 69.8301 89.6202C69.6169 89.0992 69.2503 88.6552 68.7789 88.3475C68.3076 88.0397 67.7538 87.8827 67.191 87.897C59.356 87.3597 51.6068 85.9383 44.0911 83.66C35.8231 81.086 28.2 77.3602 22.136 70.9752C16.8981 65.4507 13.5299 58.419 12.5081 50.875C11.7631 45.889 11.46 40.8351 10.985 35.8091C10.0721 25.9209 6.9976 16.3538 1.97906 7.78496C1.37906 6.75396 0.755066 5.73694 0.143066 4.71294L0.145081 2.91607Z" fill="white"/>
</svg>
