<?xml version="1.0" encoding="UTF-8"?><svg id="Layer_2" xmlns="http://www.w3.org/2000/svg" viewBox="0 0 1412.52 435.3"><defs><style>.cls-1{font-size:277.93px;}.cls-1,.cls-2,.cls-3,.cls-4{fill:#fff;}.cls-1,.cls-4{font-family:CoolveticaRg-Regular, Coolvetica;}.cls-5{letter-spacing:.02em;}.cls-6{letter-spacing:0em;}.cls-3{font-family:Nunito-SemiBold, Nunito;font-size:96.69px;font-weight:600;}.cls-7{letter-spacing:0em;}.cls-8{letter-spacing:-.05em;}.cls-9{letter-spacing:0em;}.cls-10{letter-spacing:0em;}.cls-4{font-size:277.93px;}.cls-11{letter-spacing:0em;}.cls-12{letter-spacing:0em;}</style></defs><g id="Layer_1-2"><text class="cls-1" transform="translate(0 231.35)"><tspan x="0" y="0">This is</tspan></text>
<path class="cls-2" d="m1264.06,166.3c0-2.9,0-5.8,0-8.69.08-.32.2-.65.23-.98.49-6.18,1.74-12.21,3.66-18.11.34-1.04.8-1.31,1.83-1.3,4.93.05,9.85.03,14.78.01.62,0,1.26-.05,1.86-.19,1.48-.33,2.37-1.56,2.31-3.07-.08-1.8-1.4-2.92-3.61-2.95-2.95-.04-5.89-.01-8.84-.01-1.72,0-3.43,0-5.4,0,.89-1.74,1.73-3.2,2.4-4.73.5-1.14,1.19-1.47,2.43-1.47,13.43.05,26.86.04,40.29.03,2.24,0,3.66-1.2,3.69-3.04.04-1.82-1.39-3.06-3.6-3.12-.39,0-.77,0-1.16,0-11.69,0-23.38,0-35.07,0h-1.85c1.59-1.95,2.93-3.53,4.19-5.17.62-.81,1.33-1.08,2.34-1.07,8.21.04,16.42.02,24.64.02.58,0,1.17.01,1.73-.08,1.38-.24,2.23-1.06,2.48-2.46.37-2.11-1.07-3.6-3.58-3.61-6.23-.02-12.46,0-18.7,0-.45,0-.91-.04-1.49-.07,20.12-18.15,51.47-24.64,79.55-11.68,28.95,13.36,41.85,41.05,42.77,61.24-.53,0-1.05,0-1.58,0-6.14,0-12.27,0-18.41,0-.58,0-1.17,0-1.73.1-1.35.23-2.32,1.32-2.44,2.68-.12,1.39.59,2.66,1.89,3.09.67.22,1.42.28,2.13.28,6.33.02,12.66.01,18.98.01h1.7c-.13,2.13-.24,4.08-.37,6.16h-1.99c-18.36,0-36.71,0-55.07,0-.72,0-1.45.04-2.15.2-1.35.3-2.22,1.45-2.25,2.82-.03,1.43.85,2.67,2.24,2.98.7.16,1.43.2,2.15.2,18.12.01,36.23,0,54.35,0h1.92c-.48,2.2-.91,4.16-1.34,6.16h-1.86c-13.62,0-27.25,0-40.87,0-.72,0-1.46.04-2.14.23-1.37.4-2.21,1.72-2.07,3.1.14,1.43,1.13,2.53,2.56,2.73.62.09,1.25.08,1.88.08,12.95,0,25.89,0,38.84,0,.55,0,1.09,0,1.85,0-.71,1.76-1.37,3.21-1.87,4.71-.4,1.2-1.06,1.55-2.33,1.55-26.52-.04-53.04-.03-79.56-.03-.68,0-1.36-.01-2.02.07-1.47.19-2.55,1.37-2.65,2.82-.09,1.35.8,2.68,2.18,3.05.69.18,1.43.21,2.15.21,25.51,0,51.01,0,76.52,0h1.89c-1.19,1.82-2.25,3.32-3.16,4.9-.59,1.02-1.33,1.29-2.46,1.29-13.82-.04-27.63-.02-41.45-.02-.39,0-.77-.01-1.16,0-2.25.09-3.59,1.27-3.57,3.14.02,1.82,1.32,2.97,3.49,3.07.39.02.77,0,1.16,0,12.03,0,24.06,0,36.09,0,.53,0,1.06,0,1.59,0-1.57,2.03-3.17,3.71-4.91,5.23-.58.51-1.5.89-2.26.89-16.47.05-32.95.04-49.42.04-.67,0-1.36.01-2.01.17-1.5.37-2.35,1.59-2.27,3.1.08,1.47,1.12,2.61,2.63,2.81.57.08,1.16.07,1.73.07,13.53,0,27.05,0,40.58,0,.5,0,1,0,1.84,0-.43.38-.55.52-.7.61-7.93,5.06-16.48,8.62-25.75,10.32-3.36.62-6.77.98-10.15,1.45h-8.41c-1.05-.12-2.09-.24-3.14-.36-15.91-1.77-29.96-7.84-41.88-18.54-12.74-11.44-20.68-25.63-23.68-42.52-.49-2.79-.77-5.62-1.15-8.43Z"/><text class="cls-4" transform="translate(795.69 231.24)"><tspan x="0" y="0">plut</tspan></text><text class="cls-3" transform="translate(203.15 408.52)"><tspan class="cls-9" x="0" y="0">c</tspan><tspan x="44.19" y="0">onne</tspan><tspan class="cls-6" x="262.12" y="0">c</tspan><tspan class="cls-5" x="307.36" y="0">t</tspan><tspan x="344.2" y="0">. g</tspan><tspan class="cls-12" x="450.07" y="0">r</tspan><tspan class="cls-10" x="485.46" y="0">o</tspan><tspan class="cls-8" x="539.22" y="0">w</tspan><tspan x="616.28" y="0">. </tspan><tspan class="cls-7" x="664.72" y="0">e</tspan><tspan x="716.25" y="0">xp</tspan><tspan class="cls-11" x="825.02" y="0">l</tspan><tspan x="854.13" y="0">o</tspan><tspan class="cls-12" x="908.75" y="0">r</tspan><tspan x="944.14" y="0">e.</tspan></text></g>
</svg>
