<svg width="493" height="282" viewBox="0 0 493 282" fill="none" xmlns="http://www.w3.org/2000/svg">
<path d="M347.073 158.52V152.082C347.149 151.846 347.206 151.604 347.244 151.36C347.617 146.799 348.527 142.299 349.956 137.953C349.98 137.8 350.035 137.654 350.117 137.523C350.198 137.391 350.305 137.277 350.431 137.188C350.557 137.098 350.699 137.035 350.85 137.001C351.001 136.967 351.157 136.963 351.309 136.99C354.957 137.025 358.609 137.01 362.254 136.999C362.718 137.003 363.18 136.957 363.634 136.861C364.147 136.756 364.605 136.468 364.919 136.05C365.234 135.631 365.385 135.112 365.343 134.59C365.285 133.258 364.308 132.428 362.674 132.406C360.492 132.377 358.31 132.398 356.128 132.398H352.128C352.789 131.112 353.41 130.032 353.906 128.898C354.032 128.535 354.282 128.228 354.61 128.03C354.939 127.832 355.326 127.755 355.706 127.812C365.649 127.85 375.593 127.84 385.537 127.832C387.196 127.832 388.246 126.945 388.273 125.585C388.3 124.225 387.245 123.318 385.61 123.277C385.324 123.269 385.038 123.277 384.752 123.277H357.412C358.59 121.83 359.583 120.661 360.512 119.446C360.708 119.175 360.97 118.96 361.274 118.821C361.578 118.681 361.912 118.623 362.245 118.651C368.325 118.679 374.406 118.668 380.487 118.664C380.916 118.68 381.345 118.659 381.77 118.602C382.237 118.55 382.672 118.342 383.006 118.011C383.339 117.681 383.551 117.248 383.608 116.782C383.885 115.218 382.814 114.115 380.957 114.11C376.343 114.097 371.729 114.11 367.115 114.103C366.779 114.103 366.443 114.071 366.015 114.049C373.927 107.034 383.714 102.48 394.176 100.944C404.637 99.4072 415.32 100.955 424.915 105.399C446.35 115.29 455.901 135.793 456.586 150.742H455.419C450.877 150.742 446.334 150.742 441.791 150.742C441.362 150.731 440.933 150.755 440.508 150.813C440.029 150.894 439.592 151.134 439.266 151.493C438.939 151.852 438.743 152.311 438.708 152.795C438.644 153.279 438.748 153.77 439.003 154.186C439.258 154.603 439.648 154.919 440.108 155.082C440.62 155.234 441.153 155.305 441.687 155.292C446.373 155.307 451.058 155.301 455.744 155.301H457C456.906 156.877 456.82 158.321 456.729 159.864H455.258C441.666 159.864 428.074 159.866 414.482 159.87C413.947 159.861 413.413 159.911 412.888 160.017C412.411 160.138 411.987 160.415 411.685 160.803C411.382 161.192 411.217 161.67 411.216 162.162C411.214 162.655 411.377 163.134 411.678 163.524C411.978 163.914 412.4 164.193 412.877 164.317C413.401 164.425 413.935 164.475 414.47 164.466C427.884 164.474 441.297 164.476 454.71 164.472H456.132L455.132 169.035H453.752C443.665 169.035 433.578 169.037 423.491 169.042C422.957 169.026 422.423 169.084 421.905 169.215C421.421 169.357 421.003 169.665 420.723 170.084C420.442 170.503 420.318 171.007 420.37 171.509C420.405 172.012 420.612 172.489 420.956 172.858C421.301 173.226 421.763 173.465 422.263 173.533C422.725 173.586 423.189 173.607 423.654 173.594C433.24 173.597 442.826 173.597 452.412 173.594H453.78C453.255 174.894 452.766 175.971 452.396 177.082C452.309 177.456 452.083 177.783 451.763 177.996C451.442 178.209 451.053 178.292 450.674 178.227C431.037 178.195 411.4 178.188 391.762 178.205C391.261 178.191 390.76 178.21 390.262 178.261C389.743 178.325 389.263 178.569 388.904 178.95C388.546 179.331 388.332 179.825 388.299 180.347C388.268 180.851 388.412 181.35 388.706 181.761C389 182.172 389.426 182.469 389.913 182.603C390.434 182.722 390.969 182.774 391.503 182.759C410.389 182.765 429.275 182.768 448.161 182.765H449.561C448.682 184.115 447.896 185.221 447.223 186.392C447.053 186.718 446.787 186.983 446.461 187.154C446.135 187.324 445.765 187.391 445.4 187.344C435.17 187.317 424.94 187.312 414.711 187.327C414.424 187.327 414.138 187.319 413.852 187.327C412.185 187.391 411.197 188.264 411.212 189.655C411.226 191.005 412.188 191.855 413.798 191.928C414.084 191.942 414.371 191.928 414.657 191.928H442.55C441.466 193.334 440.248 194.632 438.915 195.804C438.446 196.204 437.857 196.435 437.242 196.463C425.042 196.5 412.848 196.489 400.65 196.496C400.151 196.479 399.653 196.522 399.164 196.623C398.65 196.732 398.194 197.027 397.884 197.451C397.573 197.876 397.43 198.399 397.482 198.923C397.502 199.445 397.711 199.943 398.068 200.324C398.426 200.706 398.909 200.946 399.429 201.001C399.855 201.047 400.284 201.064 400.713 201.054C410.729 201.054 420.744 201.054 430.759 201.054H432.12C431.955 201.214 431.782 201.365 431.602 201.508C425.804 205.273 419.327 207.87 412.533 209.151C410.045 209.607 407.523 209.873 405.016 210.226H398.8C398.025 210.138 397.249 210.048 396.474 209.962C384.571 208.719 373.396 203.635 364.637 195.479C355.879 187.322 350.014 176.537 347.929 164.752C347.561 162.693 347.354 160.6 347.073 158.52Z" fill="#F72585"/>
<path d="M16.057 241.907V87.5649H32.719V105.396H34.7652C36.0319 103.447 37.7858 100.963 40.0269 97.9421C42.3167 94.8728 45.5809 92.1445 49.8194 89.7572C54.1067 87.3213 59.9043 86.1033 67.2122 86.1033C76.6637 86.1033 84.9947 88.4662 92.2051 93.1919C99.4156 97.9177 105.043 104.617 109.086 113.289C113.13 121.961 115.152 132.192 115.152 143.982C115.152 155.869 113.13 166.173 109.086 174.894C105.043 183.566 99.44 190.289 92.2782 195.064C85.1165 199.79 76.8586 202.152 67.5045 202.152C60.2941 202.152 54.5208 200.959 50.1848 198.572C45.8488 196.136 42.5115 193.383 40.173 190.314C37.8345 187.196 36.0319 184.614 34.7652 182.567H33.3036V241.907H16.057ZM33.0113 143.689C33.0113 152.167 34.2536 159.645 36.7383 166.125C39.223 172.556 42.8526 177.598 47.6271 181.252C52.4015 184.857 58.2478 186.66 65.166 186.66C72.3764 186.66 78.3932 184.76 83.2165 180.96C88.0884 177.111 91.7423 171.947 94.1783 165.467C96.663 158.939 97.9053 151.679 97.9053 143.689C97.9053 135.797 96.6873 128.684 94.2514 122.35C91.8641 115.968 88.2345 110.926 83.3626 107.223C78.5394 103.472 72.4739 101.596 65.166 101.596C58.1504 101.596 52.2554 103.374 47.4809 106.931C42.7064 110.439 39.1012 115.359 36.6652 121.693C34.2293 127.977 33.0113 135.31 33.0113 143.689ZM158.707 50.1485V199.814H141.46V50.1485H158.707ZM261.036 153.92V87.5649H278.282V199.814H261.036V180.813H259.866C257.235 186.514 253.143 191.361 247.589 195.356C242.035 199.302 235.019 201.276 226.542 201.276C219.527 201.276 213.291 199.741 207.834 196.672C202.378 193.554 198.09 188.876 194.972 182.64C191.854 176.356 190.295 168.439 190.295 158.89V87.5649H207.542V157.721C207.542 165.905 209.832 172.434 214.411 177.306C219.04 182.178 224.935 184.614 232.096 184.614C236.384 184.614 240.744 183.517 245.177 181.325C249.66 179.133 253.411 175.771 256.432 171.24C259.501 166.709 261.036 160.936 261.036 153.92ZM358.687 87.5649V102.181H300.516V87.5649H358.687ZM317.471 60.6719H334.717V167.659C334.717 172.531 335.424 176.185 336.837 178.621C338.298 181.008 340.149 182.616 342.391 183.444C344.68 184.224 347.092 184.614 349.625 184.614C351.525 184.614 353.084 184.516 354.302 184.321C355.52 184.078 356.495 183.883 357.226 183.737L360.733 199.229C359.564 199.668 357.932 200.106 355.837 200.545C353.742 201.032 351.087 201.276 347.871 201.276C343 201.276 338.225 200.228 333.548 198.133C328.92 196.038 325.071 192.847 322.002 188.56C318.981 184.273 317.471 178.865 317.471 172.336V60.6719Z" fill="white"/>
<path d="M259.29 218.661V265.613H253.88V218.661H259.29ZM283.964 266.346C280.571 266.346 277.644 265.598 275.184 264.1C272.738 262.587 270.851 260.477 269.521 257.772C268.207 255.052 267.549 251.888 267.549 248.281C267.549 244.674 268.207 241.495 269.521 238.744C270.851 235.977 272.7 233.822 275.069 232.279C277.453 230.72 280.235 229.94 283.414 229.94C285.248 229.94 287.059 230.246 288.847 230.857C290.636 231.469 292.263 232.462 293.731 233.838C295.198 235.198 296.367 237.001 297.238 239.248C298.11 241.495 298.545 244.261 298.545 247.547V249.84H271.401V245.163H293.043C293.043 243.176 292.646 241.403 291.851 239.844C291.071 238.285 289.956 237.055 288.504 236.153C287.067 235.251 285.37 234.801 283.414 234.801C281.259 234.801 279.394 235.335 277.82 236.405C276.261 237.46 275.061 238.835 274.221 240.532C273.38 242.228 272.96 244.047 272.96 245.988V249.106C272.96 251.766 273.418 254.02 274.335 255.869C275.268 257.703 276.559 259.102 278.21 260.065C279.861 261.012 281.779 261.486 283.964 261.486C285.386 261.486 286.67 261.287 287.816 260.89C288.977 260.477 289.979 259.866 290.819 259.056C291.66 258.231 292.309 257.207 292.768 255.984L297.995 257.451C297.445 259.224 296.52 260.783 295.221 262.128C293.922 263.458 292.317 264.497 290.406 265.246C288.496 265.98 286.349 266.346 283.964 266.346ZM317.138 266.438C314.906 266.438 312.881 266.018 311.063 265.177C309.244 264.321 307.799 263.091 306.73 261.486C305.66 259.866 305.125 257.91 305.125 255.617C305.125 253.6 305.522 251.964 306.317 250.711C307.112 249.442 308.174 248.449 309.504 247.731C310.833 247.012 312.301 246.477 313.905 246.126C315.525 245.759 317.153 245.469 318.789 245.255C320.928 244.98 322.663 244.773 323.993 244.636C325.338 244.483 326.316 244.231 326.927 243.879C327.554 243.528 327.867 242.916 327.867 242.045V241.862C327.867 239.6 327.248 237.842 326.01 236.589C324.787 235.335 322.93 234.709 320.439 234.709C317.856 234.709 315.831 235.274 314.364 236.405C312.897 237.536 311.865 238.744 311.269 240.028L306.134 238.194C307.051 236.054 308.273 234.388 309.802 233.196C311.345 231.988 313.027 231.148 314.845 230.674C316.679 230.185 318.483 229.94 320.256 229.94C321.387 229.94 322.686 230.078 324.153 230.353C325.636 230.613 327.065 231.155 328.44 231.981C329.831 232.806 330.985 234.052 331.902 235.718C332.819 237.384 333.278 239.615 333.278 242.412V265.613H327.867V260.844H327.592C327.225 261.608 326.614 262.426 325.758 263.297C324.902 264.168 323.763 264.91 322.342 265.521C320.921 266.132 319.186 266.438 317.138 266.438ZM317.963 261.578C320.103 261.578 321.906 261.158 323.374 260.317C324.856 259.476 325.972 258.391 326.721 257.061C327.485 255.732 327.867 254.333 327.867 252.866V247.914C327.638 248.189 327.134 248.441 326.354 248.671C325.59 248.885 324.703 249.076 323.695 249.244C322.701 249.397 321.731 249.534 320.783 249.656C319.851 249.763 319.094 249.855 318.513 249.932C317.107 250.115 315.793 250.413 314.57 250.826C313.363 251.223 312.385 251.827 311.636 252.637C310.902 253.432 310.535 254.517 310.535 255.892C310.535 257.772 311.231 259.194 312.622 260.156C314.028 261.104 315.808 261.578 317.963 261.578ZM343.153 265.613V230.399H348.38V235.718H348.747C349.389 233.975 350.55 232.561 352.232 231.476C353.913 230.391 355.808 229.849 357.917 229.849C358.315 229.849 358.811 229.856 359.407 229.871C360.003 229.887 360.454 229.91 360.76 229.94V235.442C360.577 235.397 360.156 235.328 359.499 235.236C358.857 235.129 358.177 235.076 357.459 235.076C355.747 235.076 354.218 235.435 352.873 236.153C351.544 236.856 350.489 237.834 349.71 239.088C348.946 240.326 348.563 241.739 348.563 243.329V265.613H343.153ZM372.584 244.429V265.613H367.173V230.399H372.401V235.901H372.859C373.684 234.113 374.938 232.676 376.619 231.591C378.3 230.49 380.47 229.94 383.13 229.94C385.514 229.94 387.6 230.429 389.389 231.408C391.177 232.37 392.568 233.838 393.561 235.809C394.554 237.766 395.051 240.242 395.051 243.237V265.613H389.641V243.604C389.641 240.838 388.922 238.683 387.486 237.139C386.049 235.58 384.077 234.801 381.571 234.801C379.844 234.801 378.3 235.175 376.94 235.924C375.595 236.673 374.533 237.766 373.753 239.202C372.974 240.639 372.584 242.381 372.584 244.429ZM404.938 265.613V230.399H410.348V265.613H404.938ZM407.689 224.53C406.634 224.53 405.725 224.171 404.961 223.452C404.212 222.734 403.837 221.87 403.837 220.862C403.837 219.853 404.212 218.989 404.961 218.271C405.725 217.553 406.634 217.194 407.689 217.194C408.744 217.194 409.645 217.553 410.394 218.271C411.158 218.989 411.541 219.853 411.541 220.862C411.541 221.87 411.158 222.734 410.394 223.452C409.645 224.171 408.744 224.53 407.689 224.53ZM425.669 244.429V265.613H420.258V230.399H425.485V235.901H425.944C426.769 234.113 428.022 232.676 429.703 231.591C431.385 230.49 433.555 229.94 436.214 229.94C438.599 229.94 440.685 230.429 442.473 231.408C444.261 232.37 445.652 233.838 446.646 235.809C447.639 237.766 448.136 240.242 448.136 243.237V265.613H442.725V243.604C442.725 240.838 442.007 238.683 440.57 237.139C439.134 235.58 437.162 234.801 434.655 234.801C432.928 234.801 431.385 235.175 430.024 235.924C428.679 236.673 427.617 237.766 426.838 239.202C426.058 240.639 425.669 242.381 425.669 244.429ZM472.237 279.552C469.623 279.552 467.376 279.215 465.496 278.543C463.616 277.886 462.05 277.015 460.797 275.929C459.559 274.86 458.573 273.713 457.839 272.491L462.149 269.464C462.638 270.106 463.257 270.84 464.006 271.665C464.755 272.506 465.779 273.232 467.078 273.843C468.393 274.47 470.112 274.783 472.237 274.783C475.079 274.783 477.425 274.095 479.275 272.72C481.124 271.344 482.049 269.189 482.049 266.255V259.102H481.59C481.193 259.744 480.627 260.539 479.894 261.486C479.175 262.418 478.136 263.251 476.776 263.985C475.431 264.703 473.612 265.063 471.32 265.063C468.477 265.063 465.924 264.39 463.662 263.045C461.416 261.7 459.635 259.744 458.321 257.176C457.021 254.608 456.372 251.491 456.372 247.822C456.372 244.215 457.006 241.075 458.275 238.4C459.543 235.71 461.309 233.631 463.571 232.164C465.833 230.682 468.446 229.94 471.411 229.94C473.704 229.94 475.523 230.322 476.868 231.087C478.228 231.835 479.267 232.691 479.985 233.654C480.719 234.602 481.285 235.381 481.682 235.993H482.232V230.399H487.459V266.622C487.459 269.648 486.771 272.108 485.396 274.004C484.036 275.914 482.202 277.313 479.894 278.199C477.601 279.101 475.049 279.552 472.237 279.552ZM472.053 260.202C474.223 260.202 476.058 259.706 477.555 258.712C479.053 257.719 480.192 256.29 480.971 254.425C481.751 252.56 482.14 250.329 482.14 247.731C482.14 245.194 481.758 242.954 480.994 241.013C480.23 239.072 479.099 237.552 477.601 236.451C476.103 235.351 474.254 234.801 472.053 234.801C469.761 234.801 467.85 235.381 466.322 236.543C464.809 237.704 463.67 239.263 462.906 241.22C462.157 243.176 461.782 245.346 461.782 247.731C461.782 250.176 462.164 252.339 462.929 254.219C463.708 256.083 464.854 257.551 466.368 258.62C467.896 259.675 469.791 260.202 472.053 260.202Z" fill="#FFBA08"/>
</svg>
