<svg width="197" height="82" viewBox="0 0 197 82" fill="none" xmlns="http://www.w3.org/2000/svg">
<path d="M148.3 39.5938V36.7998C148.332 36.6974 148.357 36.5928 148.374 36.4868C148.536 34.5069 148.931 32.553 149.551 30.6658C149.562 30.5997 149.586 30.5363 149.621 30.4794C149.656 30.4225 149.703 30.3732 149.757 30.3344C149.812 30.2955 149.874 30.2678 149.939 30.253C150.004 30.2381 150.072 30.2363 150.138 30.2478C151.722 30.2638 153.306 30.2568 154.889 30.2478C155.091 30.249 155.292 30.2289 155.489 30.1878C155.712 30.1426 155.91 30.0173 156.047 29.8356C156.184 29.6539 156.249 29.4284 156.231 29.2018C156.206 28.6238 155.782 28.2628 155.073 28.2538C154.126 28.2408 153.173 28.2538 152.231 28.2538H150.494C150.781 27.6958 151.051 27.2268 151.266 26.7338C151.321 26.5768 151.429 26.4439 151.571 26.358C151.714 26.272 151.882 26.2383 152.046 26.2628C156.362 26.2798 160.679 26.2748 164.995 26.2718C165.715 26.2718 166.171 25.8858 166.183 25.2958C166.195 24.7058 165.737 24.3118 165.027 24.2958C164.903 24.2958 164.779 24.2958 164.654 24.2958H152.787C153.299 23.6688 153.73 23.1608 154.135 22.6328C154.22 22.5154 154.334 22.4219 154.466 22.3614C154.597 22.301 154.743 22.2756 154.887 22.2878C157.526 22.3008 160.166 22.2958 162.806 22.2938C162.992 22.3009 163.179 22.2918 163.363 22.2668C163.566 22.2455 163.756 22.1557 163.902 22.0121C164.047 21.8685 164.139 21.6797 164.163 21.4768C164.283 20.7978 163.818 20.3188 163.012 20.3168C161.012 20.3108 159.006 20.3168 157.003 20.3168C156.857 20.3168 156.711 20.3028 156.525 20.2938C159.83 17.3833 163.88 15.4505 168.221 14.7117C172.562 13.9729 177.023 14.4573 181.105 16.1107C185.186 17.7642 188.727 20.5213 191.33 24.0733C193.933 27.6253 195.496 31.8318 195.843 36.2218H195.337C193.365 36.2218 191.393 36.2218 189.421 36.2218C189.235 36.217 189.049 36.2274 188.864 36.2528C188.656 36.2875 188.465 36.3911 188.323 36.5471C188.181 36.703 188.095 36.9023 188.08 37.1128C188.052 37.3227 188.097 37.5358 188.207 37.7165C188.318 37.8972 188.487 38.0346 188.686 38.1058C188.908 38.1721 189.14 38.2028 189.372 38.1968C191.406 38.2038 193.44 38.1968 195.472 38.1968H196.02L195.902 40.1778H195.264C189.364 40.1778 183.464 40.1778 177.564 40.1778C177.332 40.1745 177.1 40.196 176.872 40.2418C176.665 40.2955 176.483 40.4162 176.352 40.5851C176.221 40.7539 176.151 40.9613 176.151 41.1748C176.151 41.3882 176.221 41.5957 176.352 41.7645C176.483 41.9334 176.665 42.0541 176.872 42.1078C177.099 42.155 177.331 42.1768 177.563 42.1728C183.386 42.1768 189.208 42.1768 195.031 42.1728H195.648L195.216 44.1538H194.616C190.237 44.1538 185.859 44.1538 181.48 44.1538C181.248 44.147 181.016 44.1722 180.791 44.2288C180.58 44.291 180.398 44.4252 180.277 44.608C180.155 44.7908 180.101 45.0105 180.125 45.2288C180.14 45.4476 180.23 45.6545 180.38 45.8147C180.529 45.9748 180.73 46.0784 180.947 46.1078C181.146 46.1312 181.347 46.1402 181.547 46.1348H194.625C194.397 46.7008 194.185 47.1668 194.025 47.6488C193.988 47.812 193.89 47.9548 193.751 48.0479C193.612 48.1409 193.442 48.177 193.277 48.1488C184.753 48.1348 176.229 48.1318 167.704 48.1398C167.487 48.1337 167.27 48.1418 167.054 48.1638C166.829 48.1914 166.621 48.2963 166.466 48.4605C166.31 48.6247 166.217 48.8381 166.201 49.0638C166.188 49.2825 166.25 49.4992 166.377 49.6774C166.505 49.8557 166.69 49.9847 166.901 50.0428C167.127 50.095 167.359 50.1179 167.591 50.1108C175.791 50.1108 183.991 50.1108 192.191 50.1108H192.8C192.418 50.6968 192.077 51.1768 191.785 51.6858C191.711 51.8269 191.595 51.942 191.454 52.0158C191.313 52.0896 191.152 52.1185 190.994 52.0988C186.553 52.0868 182.112 52.0845 177.671 52.0918C177.547 52.0918 177.423 52.0918 177.299 52.0918C176.575 52.1188 176.146 52.4988 176.153 53.1018C176.159 53.6878 176.576 54.0558 177.275 54.0888C177.399 54.0948 177.524 54.0888 177.648 54.0888H189.75C189.279 54.6989 188.751 55.2621 188.172 55.7708C187.969 55.9443 187.713 56.045 187.446 56.0568C182.151 56.0728 176.856 56.0775 171.562 56.0708C171.346 56.0642 171.129 56.083 170.917 56.1268C170.693 56.174 170.495 56.3022 170.36 56.4868C170.225 56.6714 170.163 56.8993 170.186 57.1268C170.196 57.3533 170.287 57.5687 170.442 57.7339C170.597 57.8991 170.807 58.003 171.032 58.0268C171.217 58.046 171.403 58.0537 171.589 58.0498H185.223C185.084 58.1718 185.045 58.2168 184.998 58.2498C182.482 59.8852 179.669 61.0123 176.72 61.5678C175.64 61.7678 174.545 61.8808 173.457 62.0348H170.757L169.747 61.9198C164.58 61.3807 159.73 59.1748 155.928 55.6352C152.125 52.0956 149.579 47.4147 148.672 42.2998C148.513 41.4058 148.423 40.4998 148.3 39.5938Z" fill="white"/>
<path d="M0.0791016 81.2799V16.5199H11.2451L11.3341 21.8789C14.1041 17.4129 18.2121 15.3589 23.5721 15.3589C34.6481 15.3589 42.5981 24.1119 42.5981 38.9399C42.5981 52.2499 35.8981 61.6289 24.5541 61.6289C21.9744 61.6889 19.4222 61.0885 17.1397 59.8847C14.8573 58.6809 12.9205 56.9137 11.5131 54.7509V81.2799H0.0791016ZM30.8071 38.1369C30.8071 30.2759 26.6981 24.8269 20.8921 24.8269C15.3541 24.8269 11.0661 30.0079 11.0661 37.4219C11.0661 46.9789 14.3711 51.7139 20.8031 51.7139C27.5911 51.7139 30.8071 47.1579 30.8071 38.1369Z" fill="white"/>
<path d="M46.8 60.4679V0.440918H58.413V60.4679H46.8Z" fill="white"/>
<path d="M91.9102 60.468V54.3C88.8732 59.3 84.3172 61.625 78.2432 61.625C69.4892 61.625 63.3262 55.104 63.3262 45.457V16.52H74.9382V43.675C74.9382 49.213 77.4382 51.893 82.3522 51.893C88.2522 51.893 91.3742 47.693 91.3742 41.893V16.52H102.9V60.468H91.9102Z" fill="white"/>
<path d="M132.914 31.5261H143.722V44.0321C143.722 53.3221 138.362 61.6321 125.946 61.6321C113.083 61.6321 107.992 53.4141 107.992 43.9461V4.64014H119.425V16.5201H143.725V24.7381H119.425V42.7811C119.425 48.3191 121.391 51.5351 126.125 51.5351C130.77 51.5351 132.914 48.4091 132.914 42.9601V31.5261Z" fill="white"/>
</svg>
